<svg width="2087" height="1216" viewBox="0 0 2087 1216" fill="none" xmlns="http://www.w3.org/2000/svg">
<rect width="2087" height="1216" fill="url(#paint0_linear_639_6)"/>
<g clip-path="url(#clip0_639_6)">
<path d="M1036.15 282C983.367 281.873 887.283 332.677 884.237 377.844C881.191 423.011 890.391 425.794 894.669 428.265H944.221C955.544 402.699 969.334 387.754 1005.51 388.059C1041.68 388.363 1081.37 433.615 1064.62 473.688C1047.88 513.761 1032.41 527.719 1011.81 571.053C991.212 614.388 984.331 679.846 1011.38 734.271L1072.45 735.357C1057.33 657.667 1137.34 588.45 1169.16 540.627C1200.98 492.803 1204 474.575 1204.37 435.003C1204.09 397.451 1190.49 359.924 1160.9 329.379C1131.31 298.833 1088.94 282.127 1036.15 282ZM1039.2 785.997C998.351 785.997 965.302 819.045 965.302 859.889C965.302 900.735 998.351 934 1039.2 934C1080.04 934 1113.09 900.734 1113.09 859.889C1113.09 819.045 1080.04 785.997 1039.2 785.997V785.997Z" fill="black"/>
</g>
<defs>
<linearGradient id="paint0_linear_639_6" x1="1043.5" y1="0" x2="1043.5" y2="1216" gradientUnits="userSpaceOnUse">
<stop stop-color="#5651A6"/>
<stop offset="1" stop-color="#DA45FF"/>
</linearGradient>
<clipPath id="clip0_639_6">
<rect width="652" height="652" fill="white" transform="translate(718 282)"/>
</clipPath>
</defs>
</svg>
