<svg width="207" height="368" viewBox="0 0 207 368" fill="none" xmlns="http://www.w3.org/2000/svg">
<g clip-path="url(#clip0_2_49)">
<path d="M193.579 185.685C186.92 185.685 172.309 172.456 162.179 147.626C157.08 135.138 154.261 122.155 154.43 112.015C154.587 103.401 156.834 98.6617 158.99 97.7747C159.349 97.6288 159.731 97.5613 160.18 97.5613C166.828 97.5613 181.451 110.791 191.581 135.633C196.679 148.12 199.487 161.091 199.329 171.232C199.172 179.846 196.926 184.597 194.77 185.472C194.41 185.618 194.029 185.685 193.579 185.685Z" fill="#E9573F"/>
<path d="M198.678 132.735C188.425 107.601 172.129 89.9016 160.181 89.9016C158.755 89.9016 157.384 90.1488 156.093 90.6764L138.371 98.459C119.752 72.4827 93.8038 52.1343 63.5388 40.4432C63.6509 39.9156 63.7127 39.3765 63.7127 38.8145C63.7127 34.5803 60.2821 31.1555 56.048 31.1555C52.9595 31.1555 50.3037 32.9861 49.0905 35.6139C34.7831 31.5594 19.6787 29.3924 4.07394 29.3924C-6.73529 29.3924 -17.2973 30.4483 -27.5279 32.4356L-36.2765 13.7597C-39.4714 6.93156 -47.6701 3.36011 -57.8332 3.36011C-65.1946 3.36011 -73.5946 5.23532 -81.8544 9.11009C-101.508 18.3194 -112.974 35.3228 -107.46 47.1031L-98.8686 65.4311C-111.688 75.6725 -122.941 87.7791 -132.229 101.345C-133.632 99.7283 -135.693 98.7062 -138.001 98.7062C-142.235 98.7062 -145.666 102.143 -145.666 106.377C-145.666 109.926 -143.24 112.913 -139.955 113.778C-153.358 137.631 -161 165.156 -161 194.467C-161 206.888 -159.624 218.994 -157.019 230.629C-159.389 231.931 -161 234.458 -161 237.355C-161 241.577 -157.569 245.014 -153.335 245.014C-153.257 245.014 -153.184 245.002 -153.105 245.002C-146.805 264.6 -136.951 282.612 -124.289 298.256L-132.576 308.061C-140.994 317.977 -134.407 337.406 -117.859 351.455C-107.735 360.046 -96.2294 364.64 -86.8972 364.64C-80.979 364.64 -75.9312 362.798 -72.6631 358.946L-61.6461 345.93C-41.5105 354.679 -19.2853 359.542 4.07394 359.542C28.2411 359.542 51.1849 354.342 71.8712 345.009C72.9551 347.918 75.7568 349.996 79.0472 349.996C83.2806 349.996 86.7112 346.571 86.7112 342.337C86.7112 340.776 86.2397 339.327 85.4419 338.114C110.587 323.829 131.609 303.143 146.299 278.267C147.445 278.941 148.77 279.334 150.184 279.334C154.429 279.334 157.855 275.898 157.855 271.664C157.855 268.598 156.058 265.97 153.464 264.735C162.111 246.384 167.48 226.193 168.805 204.888L197.667 192.58C209.707 187.662 210.156 160.877 198.678 132.735ZM-86.8972 349.311C-91.4174 349.311 -99.6384 346.807 -107.937 339.765C-113.176 335.318 -117.258 330.051 -119.426 324.93C-121.026 321.168 -120.987 318.832 -120.835 318.046C-120.498 317.91 -119.723 317.709 -118.342 317.709C-113.821 317.709 -105.6 320.202 -97.3068 327.254C-92.0621 331.702 -87.9796 336.969 -85.8126 342.078C-84.2119 345.852 -84.2515 348.188 -84.4031 348.974C-84.7467 349.098 -85.5215 349.311 -86.8972 349.311ZM-53.3971 26.5742C-56.8334 30.9312 -62.1565 34.9411 -68.3837 37.8607C-74.3018 40.6343 -80.5233 42.1617 -85.9031 42.1617C-90.4852 42.1617 -92.8153 41.0613 -93.5061 40.5668C-93.45 39.7697 -92.8772 37.5006 -90.3392 34.2777C-86.9029 29.9207 -81.5792 25.9108 -75.3527 22.9912C-69.4345 20.2176 -63.2123 18.6903 -57.8282 18.6903C-53.2519 18.6903 -50.9217 19.7907 -50.2253 20.2852C-50.2864 21.0823 -50.8592 23.3506 -53.3971 26.5742ZM191.131 176.577C189.335 175.342 186.841 173.208 183.899 169.749C178.419 163.303 173.23 154.42 169.277 144.728C165.324 135.037 162.82 125.053 162.225 116.62C161.91 112.083 162.203 108.815 162.629 106.681C164.426 107.916 166.919 110.05 169.861 113.509C175.341 119.944 180.53 128.838 184.483 138.53C188.436 148.221 190.94 158.205 191.535 166.639C191.85 171.165 191.558 174.433 191.131 176.577Z" fill="#FC6E51"/>
<path d="M68.5132 112.104C66.615 126.883 48.057 136.677 27.0616 133.982C6.06703 131.286 -9.41407 117.113 -7.51586 102.334C-5.61764 87.5663 12.9397 77.7734 33.935 80.4687C54.9361 83.1633 70.4172 97.3362 68.5132 112.104Z" fill="#E9573F"/>
<path d="M95.1622 235.795C103.012 248.08 97.6613 265.532 83.2073 274.774C68.749 284.016 50.6624 281.558 42.8065 269.272C34.9506 256.997 40.3024 239.545 54.7614 230.303C69.2212 221.05 87.307 223.52 95.1622 235.795Z" fill="#E9573F"/>
<path d="M3.25388 202.677C3.25388 228.08 -20.7731 248.664 -50.4107 248.664C-80.0417 248.664 -104.069 228.079 -104.069 202.677C-104.069 177.274 -80.041 156.677 -50.4107 156.677C-20.7731 156.677 3.25388 177.274 3.25388 202.677Z" fill="#E9573F"/>
</g>
<defs>
<clipPath id="clip0_2_49">
<rect width="368" height="368" fill="white" transform="translate(-161)"/>
</clipPath>
</defs>
</svg>
