<svg width="988" height="938" viewBox="0 0 988 938" fill="none" xmlns="http://www.w3.org/2000/svg">
<g clip-path="url(#clip0_148_56)">
<path d="M198.95 909.915C177.754 909.915 151.657 899.066 129.15 880.918C110.727 866.089 96.6172 847.626 90.421 830.279C85.4463 816.366 86.0194 804.574 91.9879 797.874C97.6264 791.575 107.35 790.26 114.511 790.26C135.722 790.26 161.819 801.08 184.327 819.228C202.734 834.084 216.846 852.549 223.04 869.867C228.015 883.779 227.457 895.601 221.473 902.272C215.85 908.57 206.127 909.915 198.95 909.915Z" fill="#E9573F"/>
<path d="M951.969 473.296C934.088 473.296 894.862 439.576 867.665 376.285C853.976 344.455 846.408 311.363 846.861 285.515C847.284 263.56 853.314 251.48 859.103 249.219C860.068 248.847 861.092 248.675 862.298 248.675C880.148 248.675 919.405 282.396 946.602 345.716C960.291 377.545 967.829 410.608 967.406 436.456C966.984 458.411 960.953 470.521 955.164 472.752C954.199 473.124 953.175 473.296 951.969 473.296Z" fill="#E9573F"/>
<path d="M201.619 127.018C181.749 127.018 167.095 121.322 162.377 111.761C158.473 103.832 161.186 92.2956 169.839 80.1016C180.618 64.9306 199.342 50.6463 221.217 40.9128C239.79 32.6687 259.585 28.1179 276.981 28.1179C296.851 28.1179 311.518 33.8137 316.223 43.3457C320.126 51.2747 317.413 62.811 308.761 75.0049C297.981 90.1759 279.258 104.46 257.383 114.194C238.825 122.467 219.017 127.018 201.619 127.018Z" fill="#E9573F"/>
<path d="M965.658 338.329C938.129 274.265 894.38 229.151 862.301 229.151C858.472 229.151 854.792 229.782 851.325 231.126L803.746 250.963C753.758 184.752 684.093 132.886 602.838 103.086C603.139 101.741 603.305 100.367 603.305 98.9348C603.305 88.1423 594.094 79.4127 582.727 79.4127C574.435 79.4127 567.305 84.0789 564.047 90.7768C525.635 80.4423 485.083 74.9188 443.188 74.9188C414.167 74.9188 385.811 77.61 358.344 82.6756L334.855 35.0723C326.278 17.668 304.266 8.5647 276.98 8.5647C257.217 8.5647 234.665 13.3444 212.489 23.2209C159.723 46.6946 128.939 90.0348 143.744 120.062L166.809 166.778C132.391 192.883 102.18 223.741 77.2451 258.321C73.4764 254.199 67.944 251.594 61.7478 251.594C50.3801 251.594 41.1697 260.353 41.1697 271.145C41.1697 280.192 47.6824 287.805 56.501 290.009C20.5164 350.809 0 420.968 0 495.68C0 527.339 3.69341 558.198 10.6885 587.853C4.32634 591.172 0 597.614 0 604.997C0 615.76 9.21036 624.519 20.5781 624.519C20.7884 624.519 20.9853 624.489 21.1956 624.489C38.1093 674.441 64.5671 720.354 98.5623 760.23L76.3111 785.22C53.7126 810.497 71.3962 860.018 115.823 895.829C143.005 917.727 173.895 929.435 198.95 929.435C214.839 929.435 228.391 924.742 237.165 914.922L266.744 881.746C320.803 904.045 380.473 916.441 443.188 916.441C508.071 916.441 569.67 903.188 625.209 879.399C628.119 886.813 635.64 892.11 644.475 892.11C655.84 892.11 665.051 883.378 665.051 872.588C665.051 868.608 663.785 864.915 661.643 861.824C729.151 825.413 785.592 772.685 825.031 709.279C828.107 710.998 831.665 711.998 835.463 711.998C846.859 711.998 856.056 703.239 856.056 692.448C856.056 684.633 851.232 677.935 844.268 674.786C867.484 628.012 881.897 576.545 885.455 522.242L962.943 490.869C995.267 478.334 996.473 410.062 965.658 338.329ZM198.95 890.364C186.814 890.364 164.743 883.981 142.462 866.033C128.397 854.696 117.436 841.271 111.618 828.218C107.321 818.629 107.427 812.675 107.834 810.671C108.739 810.326 110.82 809.811 114.528 809.811C126.664 809.811 148.736 816.167 171.002 834.143C185.083 845.479 196.044 858.904 201.862 871.928C206.159 881.546 206.053 887.5 205.646 889.505C204.724 889.82 202.643 890.364 198.95 890.364ZM288.89 67.7354C279.665 78.8411 265.373 89.062 248.655 96.5037C232.766 103.573 216.062 107.467 201.619 107.467C189.317 107.467 183.061 104.662 181.207 103.401C181.357 101.37 182.895 95.5858 189.709 87.3711C198.935 76.2653 213.228 66.0445 229.945 58.6028C245.834 51.533 262.539 47.6399 276.994 47.6399C289.28 47.6399 295.536 50.4448 297.406 51.7052C297.242 53.7369 295.704 59.5188 288.89 67.7354ZM945.397 450.081C940.572 446.931 933.878 441.492 925.98 432.676C911.266 416.245 897.336 393.603 886.723 368.9C876.109 344.199 869.386 318.75 867.789 297.253C866.943 285.689 867.729 277.359 868.873 271.92C873.697 275.069 880.391 280.509 888.29 289.324C903.003 305.726 916.934 328.398 927.547 353.101C938.16 377.802 944.883 403.25 946.481 424.747C947.326 436.284 946.543 444.614 945.397 450.081Z" fill="#FC6E51"/>
<path d="M616.193 285.744C611.097 323.414 561.272 348.378 504.905 341.508C448.539 334.637 406.975 298.512 412.071 260.842C417.168 223.199 466.99 198.238 523.358 205.108C579.741 211.976 621.305 248.102 616.193 285.744Z" fill="#E9573F"/>
<path d="M687.74 601.021C708.816 632.336 694.449 676.819 655.643 700.375C616.826 723.933 568.268 717.666 547.176 686.351C526.085 655.064 540.453 610.581 579.272 587.023C618.094 563.437 666.65 569.734 687.74 601.021Z" fill="#E9573F"/>
<path d="M440.986 516.605C440.986 581.356 376.479 633.823 296.908 633.823C217.355 633.823 152.848 581.354 152.848 516.605C152.848 451.856 217.357 399.355 296.908 399.355C376.479 399.355 440.986 451.856 440.986 516.605Z" fill="#E9573F"/>
</g>
<defs>
<clipPath id="clip0_148_56">
<rect width="988" height="938" fill="white"/>
</clipPath>
</defs>
</svg>
