<?xml version="1.0" encoding="utf-8"?>
<!-- Generator: Adobe Illustrator 25.1.0, SVG Export Plug-In . SVG Version: 6.00 Build 0)  -->
<svg version="1.1" id="Layer_1" xmlns="http://www.w3.org/2000/svg" xmlns:xlink="http://www.w3.org/1999/xlink" x="0px" y="0px"
	 viewBox="0 0 160 160" style="enable-background:new 0 0 160 160;" xml:space="preserve">
<style type="text/css">
	.st0{fill:none;}
	.st1{fill:#4C364E;}
	.st2{fill:#4D374E;}
	.st3{fill:#DBE8F5;}
	.st4{fill:#C8DEF1;}
	.st5{fill:#534C71;}
	.st6{fill:#D8E4F1;}
	.st7{fill:#A1BBDB;}
	.st8{fill:#EE5758;}
	.st9{fill:#CED8E5;}
	.st10{fill:#6070B4;}
	.st11{fill:#6797CD;}
	.st12{fill:#F3C67B;}
	.st13{fill:#5EBCB3;}
	.st14{fill:#E58948;}
	.st15{fill:#E45477;}
	.st16{fill:#FEFEFE;}
</style>
<rect class="st0" width="160" height="160"/>
<g>
	<path class="st1" d="M100.5066,61.2803c0.2038,1.06,0.3817,2.0891,0.6013,3.1091c0.8829,4.101,1.6565,8.2262,2.681,12.2957
		c0.3989,1.5844,0.8962,3.1312,1.6382,4.6074c2.9156,5.8,5.4146,11.7696,7.4117,17.9569c1.2016,3.7227,1.27,7.4539,0.7434,11.2698
		c-0.4369,3.1661-0.946,6.317-1.5378,9.4575c-0.2405,1.2763,0.2574,2.371,1.1373,3.3156c1.7011,1.826,2.597,3.9962,2.7648,6.4896
		c0.1603,2.3829-0.7842,4.1337-2.8503,5.3145c-3.3006,1.8864-6.6996,2.34-10.2049,0.6404c-2.0951-1.0159-3.185-2.8791-4.0756-4.9502
		c-2.1795-5.0685-3.1606-10.3859-3.4244-15.8528c-0.1698-3.5196-0.817-6.9035-2.3087-10.1165
		c-1.0314-2.2217-1.9925-4.4759-2.9922-6.7124c-0.1949-0.4361-0.3909-0.909-1.0111-0.8167
		c-0.6231,0.0927-0.6399,0.5815-0.7056,1.0709c-0.4046,3.0102-0.706,6.03-0.9887,9.0542c-0.2955,3.1616,0.4028,6.1272,1.386,9.083
		c1.3478,4.052,2.9533,8.0141,4.1956,12.102c0.3259,1.0723,0.4278,2.1715,0.4041,3.2887c-0.0382,1.8027-0.2363,3.5914-0.7112,5.3257
		c-0.8633,3.1534-3.4689,5.2269-6.7355,5.4522c-1.599,0.1103-3.1844-0.0566-4.6948-0.5634c-2.6927-0.9034-3.682-3.054-3.9169-5.6813
		c-0.0707-0.7911-0.0345-1.5834,0.1058-2.3701c0.3365-1.8865-0.047-3.5902-1.1698-5.1727
		c-2.6759-3.7715-4.9954-7.7594-7.0634-11.8949c-0.9876-1.975-1.2894-4.1272-1.5663-6.2681
		c-0.9505-7.3496-1.2297-14.7403-1.2449-22.1449c-0.0033-1.614-0.6772-3.0825-1.1195-4.5944
		c-1.2584-4.3011-2.5679-8.5872-3.8545-12.8801c-0.0595-0.1985-0.0459-0.4699-0.3058-0.4964
		c-0.2378-0.0242-0.3236,0.2355-0.4408,0.3963c-2.0671,2.8369-4.0976,5.7011-6.2026,8.5095
		c-1.4432,1.9254-2.9808,3.7854-5.2346,4.8471c-0.3999,0.1883-0.3901,0.5191-0.405,0.8625c-0.0751,1.7258-0.3556,3.4096-1.022,5.015
		c-1.1037,2.659-3.3995,3.3402-5.7613,1.691c-0.276-0.1928-0.4799-0.1889-0.7878-0.0869c-1.8063,0.5985-3.6639,0.9549-5.5162,0.3304
		c-1.9126-0.6448-3.0201-2.0836-3.3295-4.0657c-0.3989-2.5556,0.4548-4.8329,1.9313-6.8302
		c1.2035-1.628,2.1521-3.1855,2.4871-5.3178c0.5349-3.4045,2.5527-6.271,4.5092-9.0636
		c4.7135-6.7277,10.2663-12.6705,16.7778-17.6981c0.4799-0.3705,0.9664-0.7393,1.4841-1.0523
		c0.5409-0.3271,0.5067-0.573,0.0736-0.999c-2.114-2.0792-3.6269-4.5809-4.379-7.4135c-1.3889-5.2313-0.7286-10.2584,2.4124-14.7432
		c3.9298-5.611,9.4555-8.2617,16.2477-7.5691c7.0627,0.7201,11.9627,4.6636,14.6772,11.2175
		c1.2635,3.0507,1.3842,6.2525,0.8118,9.4867c-0.1817,1.0268-0.1853,1.0097,0.8625,1.034
		c4.4947,0.1043,8.7371,1.2469,12.6255,3.4589c6.1674,3.5085,12.2126,7.2261,18.0685,11.2397
		c1.2202,0.8363,2.3407,1.8085,3.2164,3.0257c0.0925,0.1286,0.2388,0.2471,0.267,0.3888c0.2984,1.4985,1.5184,1.7792,2.7195,2.1992
		c1.9697,0.6888,3.7471,1.736,4.9953,3.4706c1.2148,1.6882,1.4639,3.5198,0.624,5.4657c-0.5468,1.2671-1.6519,1.8804-2.8123,2.4103
		c-0.8379,0.3826-1.7078,0.6967-2.5703,1.0234c-0.4004,0.1517-0.6075,0.3714-0.7052,0.8317
		c-0.616,2.9036-4.1404,4.0154-6.3749,2.0212c-1.2741-1.137-2.2977-2.4777-3.0275-4.0252c-0.192-0.4071-0.4316-0.5679-0.8904-0.6172
		c-1.607-0.1727-3.0237-0.8999-4.4057-1.6769c-3.6142-2.032-7.0099-4.4124-10.5107-6.6254
		C101.2303,61.563,100.9878,61.2921,100.5066,61.2803z M96.7865,45.146l-0.0224-0.0662c-0.3386-0.7071-0.6772-1.4142-1.0158-2.1213
		c-0.0636,0.0269-0.1272,0.0539-0.1908,0.0808c0.3509,0.6043,0.3317,1.3359,0.772,1.9095c0.0266,0.109,0.0532,0.218,0.0798,0.327
		c-0.0855,0.1701,0.0132,0.2581,0.1472,0.3304c0.1089,0.3578,0.2177,0.7157,0.3266,1.0735
		c-0.0668,0.1664-0.0061,0.2815,0.1449,0.3602c0.0543,0.1982,0.1087,0.3965,0.163,0.5947
		c-0.0491,0.1312,0.0064,0.2212,0.1145,0.2904c0.0266,0.1131,0.0531,0.2261,0.0797,0.3392
		c-0.0802,0.1639-0.0245,0.276,0.1332,0.3491c0.7147,2.6462,1.4324,5.2917,1.9712,7.9812c0.0628,0.3134,0.2409,0.5002,0.5038,0.6642
		c4.3415,2.7077,8.5466,5.6297,12.9465,8.2454c1.0433,0.6202,2.1191,1.1817,3.2938,1.5233
		c0.4583,0.1333,0.8316,0.1455,1.1507-0.3494c1.4866-2.3052,2.9953-4.5967,4.5304-6.8698c0.332-0.4917,0.2764-0.863-0.0583-1.2801
		c-0.5507-0.6861-1.2231-1.2449-1.9174-1.7676c-4.4139-3.3228-9.3001-5.9133-13.9025-8.9444
		c-0.3773-0.2485-0.6123-0.046-0.9079,0.1557c-1.2501,0.8529-2.5878,1.2683-4.114,0.8259c-1.9329-0.5602-3.091-2.007-4.1733-3.5538
		C96.8564,45.1912,96.838,45.1585,96.7865,45.146z M60.4945,26.661c5.2124-4.0971,11.1717-5.5677,17.7345-4.9559
		c-0.2261-0.2127-0.4276-0.3352-0.6444-0.4176c-3.4893-1.3259-6.9951-1.421-10.5037-0.0906
		c-2.7276,1.0342-4.9987,2.6793-6.6687,5.1028c-0.253,0.1892-0.4226,0.427-0.4872,0.7837
		C60.2135,27.0112,60.3651,26.8509,60.4945,26.661z M84.0987,42.7265c-5.3837,4.4114-11.5811,5.9241-18.4423,5.1233
		c0.1376,0.1566,0.2641,0.2408,0.4007,0.3024c3.2757,1.4776,6.6572,1.7854,10.1146,0.7979c3.4732-0.9921,6.2157-3.0161,8.1921-6.055
		c0.0506-0.0977,0.2286-0.1992,0.0981-0.2963C84.3611,42.5236,84.1651,42.5262,84.0987,42.7265z M94.5863,100.6519
		c0.0395,0.432,0.2565,0.8001,0.4383,1.1775c2.0651,4.2858,3.2051,8.775,3.3792,13.5577
		c0.1936,5.3175,1.3341,10.4534,3.6177,15.3032c0.5942,1.262,1.4747,2.2031,2.7765,2.6593c2.7107,0.95,5.1968,0.375,7.4659-1.2881
		c0.515-0.3775,0.7157-0.9472,0.7322-1.5972c0.0531-2.0982-0.7422-3.8384-2.1305-5.3727c-1.4627-1.6166-2.1027-3.5183-1.7095-5.6962
		c0.5439-3.013,1.043-6.0322,1.4639-9.0654c0.484-3.4878,0.5693-6.9308-0.6488-10.3185c-0.7481-2.0804-1.3183-4.2249-2.2594-6.2358
		c-0.3088-1.0189-0.6531-2.0234-1.1964-2.9472c-0.4641-1.5173-1.2275-2.9075-1.8516-4.3569
		c-0.8856-2.0568-2.0981-3.9632-2.8443-6.0821c-1.1331-3.2176-1.7539-6.5688-2.456-9.8929
		c-1.373-6.4999-2.589-13.034-4.2817-19.4628c-0.7179-2.7266-1.4804-5.4429-2.7081-7.9973c-0.1491-0.3102-0.196-0.7421-0.6626-0.807
		c-0.1441-0.1648-0.3162-0.131-0.4922-0.0694c-0.412-0.082-0.8259-0.0808-1.241-0.0292c-1.1428-0.1997-1.8354,0.0854-2.4759,1.2615
		c-2.6592,4.8821-6.8584,7.8116-12.3082,8.7976c-4.2832,0.7749-8.3501-0.0114-12.09-2.2939
		c-0.2839-0.1733-0.5209-0.2222-0.7981-0.0301c-0.4308,0.2985-0.8657,0.5911-1.2988,0.8862
		c-0.4767,0.1427-0.4343,0.5167-0.422,0.8992c0.1053,3.2605,0.7038,6.453,1.3916,9.6253
		c1.5149,6.9874,3.5859,13.8252,5.7565,20.6292c1.0584,3.3176,1.8565,6.626,1.6373,10.1528
		c-0.1241,1.9961,0.0333,4.0106,0.2267,6.0095c-0.0921,1.0223-0.0468,2.0361,0.1867,3.0383
		c-0.0114,0.1577-0.0373,0.3159-0.0319,0.473c0.1082,3.1706,0.4492,6.3219,0.8827,9.4601c0.2154,1.5596,0.4428,3.1356,1.1693,4.5772
		c2.0205,4.0089,4.2684,7.8831,6.8633,11.549c1.595,2.2532,2.1474,4.7202,1.6562,7.4323c-0.1184,0.6535-0.1166,1.3197-0.0286,1.9745
		c0.145,1.0799,0.4501,2.1554,1.5628,2.5764c1.7637,0.6674,3.5969,0.8513,5.4166,0.1668c1.3603-0.5117,2.2268-1.5481,2.5589-2.921
		c0.6718-2.7777,0.8967-5.554-0.1296-8.3379c-1.2757-3.46-2.4623-6.9531-3.6666-10.4391c-1.0823-3.1328-1.9005-6.2998-1.6476-9.68
		c0.118-1.5764,0.3838-3.1484,0.3099-4.7386c0.3087-1.1368,0.3835-2.3045,0.4579-3.4723c0.1048-0.7044,0.2087-1.4089,0.3147-2.1131
		c0.2622-1.7426,1.479-3.0258,3.0892-3.2589c1.7988-0.2604,3.2798,0.5435,4.0628,2.1926c0.18,0.3791,0.3937,0.7422,0.5927,1.1124
		C93.5799,98.7,94.0017,99.7132,94.5863,100.6519z M76.0705,24.616c-4.0922,0.0134-7.0999,0.6289-9.9374,2.0141
		c-3.0009,1.465-5.5052,3.5003-7.169,6.4352c-1.2991,2.2914-1.4588,4.6893-0.2317,7.063c0.9901,1.9152,2.6994,3.0574,4.635,3.8492
		c3.1151,1.2744,6.3735,1.3819,9.6132,0.7483c2.9228-0.5716,5.6997-1.6181,8.1351-3.4356c2.4615-1.8369,4.4137-3.9743,5.1431-7.1025
		c0.6172-2.6472-0.7773-5.7639-2.854-7.2016C80.9103,25.2595,78.1217,24.5811,76.0705,24.616z M39.3026,77.5061
		c-0.0926,0.3397,0.24,0.5469,0.6599,0.7397c2.2985,1.0555,4.6046,2.0964,6.8749,3.2101c0.6972,0.342,1.2335,0.2728,1.8272-0.1416
		c1.0518-0.734,1.9064-1.6675,2.6978-2.6564c3.0005-3.7491,5.4811-7.887,8.6152-11.5363c0.2457-0.2861,0.2167-0.5878,0.1347-0.8935
		c-1.0608-3.9557-1.8104-7.97-2.2956-12.0356c-0.0298-0.2496,0.0354-0.6109-0.2375-0.7107
		c-0.271-0.0991-0.4439,0.2247-0.6357,0.3886c-3.3196,2.8374-6.3293,5.9824-9.1101,9.341
		c-2.9134,3.5186-5.6819,7.1457-7.6355,11.315C39.7839,75.4103,39.4441,76.3248,39.3026,77.5061z M37.7878,89.5277
		c0.8519-0.023,1.7375-0.0818,2.4648-0.4967c1.3261-0.7564,2.3917-0.4316,3.4627,0.4728c0.6703,0.566,1.0364,0.4579,1.3794-0.3471
		c0.6102-1.4323,0.7514-2.9571,0.8266-4.4922c0.0159-0.324-0.1729-0.483-0.4228-0.5995c-2.1982-1.0249-4.3969-2.0489-6.599-3.0653
		c-0.2115-0.0976-0.4505-0.1886-0.6575,0.0361c-1.623,1.7615-2.975,3.67-2.9764,6.1921
		C35.2647,88.7305,36.2406,89.5655,37.7878,89.5277z M130.3573,66.3893c-0.0098-0.9755-0.461-1.8031-1.2681-2.492
		c-1.2293-1.0493-2.6829-1.6482-4.2085-2.1203c-0.4694-0.1453-0.7238-0.0331-0.9799,0.3591
		c-1.327,2.0325-2.6748,4.0515-4.0133,6.0765c-0.1282,0.1939-0.3044,0.375-0.1804,0.6468c0.6324,1.3858,1.4559,2.6456,2.6332,3.6197
		c0.6916,0.5723,1.4018,0.1972,1.5298-0.7128c0.1662-1.1819,0.7044-2.0446,1.9139-2.467c1.1915-0.4161,2.3866-0.838,3.5195-1.413
		C130.0173,67.524,130.3821,66.9829,130.3573,66.3893z M100.0797,44.4536c0.5127,1.1691,1.6465,1.7564,2.7031,1.4376
		C101.98,45.247,101.0906,44.9091,100.0797,44.4536z"/>
	<path class="st1" d="M137.7752,108.0241c0.0274,2.7422-1.2734,4.5219-3.6694,5.5244c-3.3621,1.4067-6.8632,0.3619-8.495-2.5351
		c-1.7988-3.1933-0.2153-7.4904,3.3674-9.1386c2.379-1.0944,4.5259-0.7277,6.3752,1.1378
		C136.8598,104.5322,137.7143,106.3577,137.7752,108.0241z M131.1678,111.2469c0.7363,0.0738,1.5112-0.204,2.2439-0.5718
		c1.2194-0.612,1.7095-1.6673,1.3764-2.9538c-0.1918-0.7409-0.5026-1.442-0.9765-2.0593c-1.4063-1.832-3.0258-1.9731-4.7077-0.4056
		c-1.1651,1.0859-1.6372,2.6471-1.1652,3.8537C128.4657,110.4576,129.6116,111.2433,131.1678,111.2469z"/>
	<path class="st2" d="M33.2883,117.1988c-1.4143-0.0129-2.4176-0.615-3.0958-1.7316c-0.2564-0.4221-0.5676-0.7318-0.9833-0.9897
		c-2.3427-1.4538-2.3575-4.5614-0.0216-6.0164c0.4424-0.2756,0.7537-0.6106,1.029-1.0481c1.4309-2.2736,4.5716-2.2661,5.9905,0.0118
		c0.2737,0.4394,0.5933,0.772,1.0362,1.0445c2.2833,1.4049,2.2971,4.5704,0.0224,5.9777c-0.466,0.2883-0.8066,0.6364-1.0885,1.0986
		C35.5052,116.6479,34.4888,117.1726,33.2883,117.1988z M35.984,111.4014c-0.0452-0.2148-0.174-0.4142-0.409-0.5081
		c-0.8526-0.3405-1.3982-0.9509-1.7995-1.7768c-0.301-0.6196-0.8481-0.5796-1.175,0.0796
		c-0.3679,0.7419-0.8786,1.2649-1.6185,1.6456c-0.7637,0.3929-0.7655,0.8559-0.0197,1.2398
		c0.7321,0.3769,1.2639,0.8732,1.6302,1.6254c0.365,0.7493,0.8718,0.7455,1.244-0.0116c0.3697-0.7521,0.8776-1.2881,1.6475-1.6043
		C35.758,111.9784,35.9728,111.7742,35.984,111.4014z"/>
	<path class="st2" d="M117.4112,33.36c-0.0312,0.8965-0.612,1.9075-1.7383,2.5833c-0.42,0.252-0.7247,0.5684-0.9845,0.9865
		c-1.453,2.3382-4.5389,2.34-6.0201,0.0054c-0.277-0.4366-0.6147-0.757-1.0498-1.0317c-2.28-1.4397-2.2673-4.5445,0.0267-5.9766
		c0.4394-0.2743,0.7641-0.6025,1.0384-1.0397c1.4129-2.2526,4.4928-2.3017,5.9378-0.0817c0.3278,0.5036,0.7091,0.8782,1.2077,1.1997
		C116.8793,30.6824,117.4127,31.7286,117.4112,33.36z M111.6872,35.6786c0.3786,0.0001,0.5453-0.2973,0.6662-0.5797
		c0.3068-0.7167,0.8168-1.1768,1.5202-1.5123c0.785-0.3744,0.7895-0.8912,0.0064-1.2962c-0.7101-0.3672-1.2135-0.8552-1.5693-1.5769
		c-0.384-0.7788-0.9044-0.7751-1.2908,0.0163c-0.3549,0.7268-0.8587,1.2144-1.5762,1.5693
		c-0.7336,0.3628-0.7432,0.8891-0.0209,1.2429c0.7472,0.3661,1.3018,0.8618,1.6191,1.6358
		C111.1509,35.4436,111.317,35.7015,111.6872,35.6786z"/>
	<path class="st1" d="M136.8018,43.5793c-0.0217,2.4719-2.3568,4.4079-5.2524,4.3549c-2.626-0.0481-4.7433-2.1751-4.7285-4.7502
		c0.0158-2.7602,2.5352-5.2866,5.2177-5.2324C134.4646,38.0006,136.8263,40.791,136.8018,43.5793z M131.5726,44.9562
		c1.17,0.0545,2.2175-0.581,2.2803-1.3835c0.0824-1.0522-1.0054-2.5816-1.8721-2.632c-0.9613-0.0559-2.1243,1.0735-2.1885,2.1252
		C129.7293,44.0991,130.489,44.9057,131.5726,44.9562z"/>
	<path class="st1" d="M44.2964,30.7698c-0.01,2.4231-2.3313,4.3615-5.1963,4.3391c-2.6113-0.0204-4.7489-2.1719-4.7238-4.7546
		c0.0267-2.7505,2.4741-5.1762,5.1928-5.1467C41.9664,25.2338,44.3078,27.9887,44.2964,30.7698z M39.2191,32.1402
		c1.2537-0.0122,2.1462-0.6532,2.1276-1.5281c-0.0239-1.1257-1.0903-2.4764-1.948-2.4673
		c-1.0149,0.0107-2.1056,1.2201-2.0824,2.3088C37.3371,31.4276,38.1528,32.1506,39.2191,32.1402z"/>
	<path class="st2" d="M26.0948,62.6111c-2.1183-0.0086-3.8856-1.7843-3.8703-3.8885c0.016-2.1939,2.0573-4.2475,4.2076-4.2329
		c1.9678,0.0134,3.9573,2.3161,3.9253,4.5433C30.3287,61.0365,28.4415,62.6206,26.0948,62.6111z M26.1648,59.6629
		c0.6802,0.0176,1.2552-0.3576,1.2436-0.8114c-0.0126-0.4928-0.6544-1.3419-1.0347-1.3687
		c-0.4787-0.0338-1.1548,0.6396-1.1902,1.1857C25.1487,59.2043,25.5865,59.6479,26.1648,59.6629z"/>
	<path class="st2" d="M47.0294,46.3942c-0.0073,2.0181-1.854,3.5916-4.2213,3.597c-2.0853,0.0047-3.9374-1.8335-3.9091-3.8799
		c0.0302-2.1878,2.0861-4.2542,4.2225-4.2441C45.1202,41.8765,47.0377,44.0979,47.0294,46.3942z M42.9364,47.0229
		c0.7024-0.0135,1.16-0.3365,1.145-0.808c-0.0188-0.5908-0.6736-1.4134-1.1018-1.3839c-0.4312,0.0297-1.1542,0.8383-1.1525,1.2889
		C41.829,46.6031,42.3584,47.0341,42.9364,47.0229z"/>
	<path class="st1" d="M54.338,129.8139c-2.0929,0.0098-3.8624-1.7113-3.8807-3.7747c-0.0202-2.2752,1.954-4.3255,4.1689-4.3295
		c1.9861-0.0036,3.9485,2.2452,3.9362,4.5106C58.5515,128.2411,56.7156,129.8028,54.338,129.8139z M54.2988,126.8702
		c0.7787-0.0196,1.3403-0.4023,1.3322-0.8173c-0.0092-0.4643-0.6983-1.369-1.0549-1.3848
		c-0.4796-0.0212-1.2119,0.7825-1.1623,1.3218C53.4688,126.5901,53.8638,126.8444,54.2988,126.8702z"/>
	<path class="st3" d="M91.7111,42.2296c0.4667,0.0649,0.5135,0.4968,0.6626,0.807c1.2277,2.5544,1.9902,5.2707,2.7081,7.9973
		c1.6927,6.4288,2.9087,12.9629,4.2817,19.4628c0.7022,3.3241,1.3229,6.6754,2.456,9.8929
		c0.7462,2.1189,1.9587,4.0253,2.8443,6.0821c0.6241,1.4494,1.3874,2.8396,1.8516,4.3566c-5.2373,0.712-9.6836,2.964-13.2999,6.8319
		c-0.1982-0.3705-0.4119-0.7336-0.5919-1.1127c-0.783-1.6491-2.264-2.4529-4.0628-2.1926c-1.6101,0.233-2.827,1.5162-3.0892,3.2589
		c-0.1059,0.7042-0.2099,1.4087-0.3145,2.1126c-0.2048-0.1184-0.4115-0.2334-0.6145-0.3545
		c-1.837-1.0962-3.822-1.7399-5.9384-2.0475c-3.0659-0.4455-6.0507-0.0602-9.0069,0.7441
		c-0.1938-1.9993-0.3512-4.0137-0.2271-6.0098c0.2192-3.5268-0.579-6.8353-1.6373-10.1528
		c-2.1706-6.804-4.2416-13.6418-5.7565-20.6292c-0.6878-3.1723-1.2863-6.3647-1.3916-9.6253
		c-0.0124-0.3825-0.0547-0.7565,0.4221-0.8991c0.3705,0.0538,0.6946,0.1962,1.0122,0.4068
		c1.6364,1.0849,3.4443,1.8229,5.3264,2.3078c2.9027,0.7478,5.8458,0.8443,8.7997,0.2022c3.4698-0.7542,6.5088-2.3127,9.113-4.7315
		c2.0734-1.9258,3.6179-4.2109,4.7197-6.8066c0.4151-0.0516,0.8291-0.0528,1.241,0.0292
		C91.3432,42.4649,91.5098,42.4704,91.7111,42.2296z M77.1803,72.3119c0.1376-0.0154,0.4901-0.0087,0.8162-0.0984
		c2.8207-0.7759,5.6523-1.5179,8.4493-2.3726c2.516-0.7688,4.0529-3.3548,3.4879-5.9074c-0.4606-2.0809-1.0381-4.1432-1.6921-6.1723
		c-0.9197-2.8534-3.5209-4.2799-6.4272-3.5424c-2.6046,0.6609-5.1962,1.384-7.7649,2.173c-2.9285,0.8995-4.4257,3.5594-3.6833,6.506
		c0.4954,1.9664,1.0654,3.9172,1.6852,5.8483C72.7349,70.8762,74.741,72.2796,77.1803,72.3119z"/>
	<path class="st4" d="M84.6991,103.1992c0.0738,1.5902-0.192,3.1622-0.3099,4.7386c-0.253,3.3801,0.5653,6.5472,1.6476,9.68
		c1.2043,3.486,2.391,6.979,3.6666,10.4391c1.0263,2.7838,0.8014,5.5602,0.1296,8.3379c-0.3321,1.373-1.1986,2.4093-2.5589,2.921
		c-1.8197,0.6846-3.6529,0.5006-5.4166-0.1668c-1.1127-0.421-1.4177-1.4965-1.5628-2.5764
		c-0.088-0.6548-0.0897-1.3211,0.0286-1.9745c0.4912-2.7121-0.0613-5.1791-1.6562-7.4323
		c-2.5949-3.6659-4.8428-7.5401-6.8633-11.549c-0.7266-1.4416-0.9539-3.0176-1.1693-4.5772
		c-0.4335-3.1382-0.7745-6.2895-0.8827-9.4601c-0.0053-0.1571,0.0206-0.3153,0.032-0.4731
		c0.2303-0.0559,0.4617-0.1077,0.6907-0.1681C75.5484,99.6016,80.4051,99.6297,84.6991,103.1992z"/>
	<path class="st4" d="M107.7118,93.7758c0.9411,2.0109,1.5113,4.1553,2.2594,6.2358c1.2181,3.3877,1.1328,6.8307,0.6488,10.3185
		c-0.4209,3.0332-0.92,6.0524-1.4639,9.0654c-0.3932,2.1778,0.2468,4.0796,1.7095,5.6962c1.3883,1.5344,2.1836,3.2746,2.1305,5.3727
		c-0.0164,0.65-0.2171,1.2197-0.7322,1.5972c-2.2691,1.6631-4.7552,2.238-7.4659,1.2881c-1.3018-0.4562-2.1823-1.3974-2.7765-2.6593
		c-2.2836-4.8498-3.4241-9.9857-3.6177-15.3032c-0.1741-4.7827-1.3141-9.2719-3.3792-13.5577
		c-0.1818-0.3773-0.3988-0.7455-0.4383-1.1776c0.1877-0.22,0.3723-0.4427,0.5637-0.6593
		C98.4912,96.2111,102.7038,94.1896,107.7118,93.7758z"/>
	<path class="st5" d="M76.1691,24.3583c2.1028-0.0358,4.9616,0.6596,7.5188,2.4298c2.129,1.4738,3.5586,4.6689,2.9259,7.3827
		c-0.7477,3.2069-2.749,5.3981-5.2725,7.2812c-2.4967,1.8631-5.3434,2.936-8.3397,3.522c-3.3212,0.6495-6.6616,0.5393-9.8551-0.7671
		c-1.9843-0.8118-3.7366-1.9827-4.7516-3.9461c-1.258-2.4334-1.0942-4.8916,0.2375-7.2407c1.7057-3.0087,4.273-5.0953,7.3494-6.5971
		C68.8906,25.0031,71.974,24.372,76.1691,24.3583z"/>
	<path class="st4" d="M39.3026,77.5061c0.1416-1.1813,0.4814-2.0958,0.8955-2.9796c1.9536-4.1693,4.7221-7.7964,7.6355-11.315
		c2.7808-3.3585,5.7905-6.5036,9.1101-9.341c0.1918-0.1639,0.3647-0.4877,0.6357-0.3886c0.2729,0.0998,0.2077,0.4611,0.2375,0.7107
		c0.4852,4.0656,1.2347,8.0798,2.2956,12.0356c0.082,0.3057,0.111,0.6074-0.1347,0.8935
		c-3.1342,3.6493-5.6148,7.7872-8.6152,11.5363c-0.7915,0.9889-1.646,1.9224-2.6978,2.6564
		c-0.5938,0.4143-1.13,0.4836-1.8272,0.1416c-2.2703-1.1137-4.5764-2.1547-6.8749-3.2101
		C39.5426,78.053,39.21,77.8459,39.3026,77.5061z"/>
	<path class="st4" d="M96.4093,45.2758c-0.0266-0.109-0.0532-0.218-0.0798-0.3268c0.1449,0.0437,0.2897,0.0873,0.4346,0.1309
		c0,0,0.0224,0.0662,0.0223,0.0658c-0.0133,0.0503,0.0051,0.0832,0.0552,0.0984c1.0823,1.5467,2.2404,2.9935,4.1733,3.5538
		c1.5261,0.4423,2.8639,0.0269,4.114-0.8259c0.2956-0.2017,0.5307-0.4041,0.9079-0.1557c4.6024,3.0311,9.4886,5.6215,13.9025,8.9444
		c0.6943,0.5227,1.3667,1.0815,1.9174,1.7676c0.3347,0.4171,0.3904,0.7884,0.0583,1.2801
		c-1.5351,2.2732-3.0438,4.5646-4.5304,6.8698c-0.3191,0.4949-0.6925,0.4826-1.1507,0.3494
		c-1.1746-0.3416-2.2505-0.9031-3.2938-1.5233c-4.3999-2.6157-8.605-5.5377-12.9465-8.2454
		c-0.2628-0.1639-0.441-0.3508-0.5038-0.6642c-0.5388-2.6894-1.2566-5.335-1.9711-7.9809c0.0682-0.1592,0.0165-0.2731-0.1334-0.3494
		c-0.0266-0.1131-0.0531-0.2261-0.0796-0.3389c0.1438-0.1684,0.0541-0.2451-0.1146-0.2908
		c-0.0543-0.1982-0.1087-0.3965-0.1628-0.5944c0.0729-0.1688,0.0271-0.2901-0.1451-0.3605
		c-0.1089-0.3578-0.2177-0.7157-0.3264-1.0732C96.6107,45.4506,96.5882,45.3283,96.4093,45.2758z"/>
	<path class="st6" d="M37.7879,89.5283c-1.5473,0.0372-2.5232-0.7978-2.5224-2.3005c0.0014-2.5221,1.3534-4.4306,2.9764-6.1921
		c0.207-0.2247,0.4459-0.1337,0.6575-0.0361c2.2022,1.0164,4.4008,2.0404,6.599,3.0653c0.25,0.1165,0.4387,0.2755,0.4228,0.5995
		c-0.0752,1.535-0.2164,3.0599-0.8266,4.4922c-0.343,0.805-0.7091,0.9131-1.3794,0.3471c-1.071-0.9044-2.1366-1.2292-3.4627-0.4728
		C39.5252,89.4458,38.6396,89.5047,37.7879,89.5283z"/>
	<path class="st6" d="M130.3573,66.3893c0.0248,0.5936-0.34,1.1347-1.0537,1.497c-1.1329,0.575-2.3281,0.9969-3.5195,1.413
		c-1.2096,0.4224-1.7478,1.2851-1.9139,2.467c-0.128,0.91-0.8382,1.2851-1.5298,0.7128c-1.1772-0.9742-2.0008-2.2339-2.6332-3.6197
		c-0.124-0.2719,0.0522-0.4529,0.1804-0.6468c1.3385-2.025,2.6863-4.044,4.0133-6.0765c0.2561-0.3922,0.5105-0.5044,0.9799-0.3591
		c1.5256,0.4722,2.9792,1.071,4.2085,2.1203C129.8962,64.5862,130.3474,65.4139,130.3573,66.3893z"/>
	<path class="st7" d="M89.9779,42.131c-1.1018,2.5957-2.6462,4.8808-4.7197,6.8066c-2.6042,2.4188-5.6432,3.9773-9.113,4.7315
		c-2.954,0.6421-5.897,0.5455-8.7997-0.2022c-1.8821-0.4849-3.69-1.2229-5.3264-2.3078c-0.3176-0.2106-0.6417-0.353-1.0122-0.4068
		c0.4331-0.2952,0.8679-0.5878,1.2987-0.8862c0.2772-0.1921,0.5142-0.1432,0.7981,0.0301c3.7399,2.2825,7.8069,3.0688,12.09,2.2939
		c5.4498-0.986,9.649-3.9155,12.3082-8.7976C88.1425,42.2164,88.8351,41.9313,89.9779,42.131z"/>
	<path class="st8" d="M84.6991,103.1992c-4.294-3.5695-9.1507-3.5976-14.2246-2.2609c-0.2291,0.0603-0.4604,0.1122-0.6907,0.1681
		c-0.2336-1.0022-0.2789-2.016-0.1866-3.0381c2.9564-0.8041,5.9412-1.1894,9.007-0.7439c2.1164,0.3076,4.1014,0.9513,5.9384,2.0475
		c0.203,0.1211,0.4097,0.2362,0.6145,0.3545C85.0826,100.8947,85.0078,102.0624,84.6991,103.1992z"/>
	<path class="st8" d="M107.7118,93.7758c-5.008,0.4138-9.2205,2.4353-12.5618,6.2166c-0.1914,0.2166-0.3759,0.4393-0.5637,0.6593
		c-0.5846-0.9386-1.0064-1.9518-1.3703-2.9916c3.6159-3.8678,8.0622-6.1198,13.2995-6.8318
		C107.0586,91.7524,107.403,92.7569,107.7118,93.7758z"/>
	<path class="st9" d="M84.3639,42.8951c-1.9764,3.0389-4.7189,5.0629-8.1921,6.055c-3.4575,0.9876-6.839,0.6797-10.1146-0.7979
		c-0.1366-0.0616-0.2631-0.1458-0.4007-0.3024c6.8612,0.8008,13.0586-0.7119,18.4423-5.1233
		C84.1871,42.7827,84.2755,42.8389,84.3639,42.8951z"/>
	<path class="st9" d="M60.4123,26.2997c1.67-2.4234,3.9411-4.0685,6.6687-5.1028c3.5086-1.3304,7.0144-1.2353,10.5037,0.0906
		c0.2168,0.0824,0.4183,0.2049,0.6444,0.4176c-6.5628-0.6118-12.5221,0.8588-17.7345,4.9558
		C60.4671,26.5405,60.4397,26.4201,60.4123,26.2997z"/>
	<path class="st10" d="M100.0797,44.4536c1.011,0.4555,1.9004,0.7934,2.7031,1.4376
		C101.7261,46.21,100.5923,45.6227,100.0797,44.4536z"/>
	<path class="st11" d="M96.7641,45.0798c-0.1448-0.0436-0.2897-0.0872-0.4346-0.1309c-0.4403-0.5737-0.4211-1.3053-0.772-1.9096
		c0.0636-0.0269,0.1272-0.0539,0.1908-0.0808C96.0869,43.6656,96.4255,44.3727,96.7641,45.0798z"/>
	<path class="st7" d="M60.4123,26.2997c0.0274,0.1204,0.0548,0.2408,0.0822,0.3612c-0.1293,0.19-0.2809,0.3503-0.5694,0.4225
		C59.9897,26.7267,60.1593,26.489,60.4123,26.2997z"/>
	<path class="st7" d="M91.7111,42.2296c-0.2013,0.2408-0.3678,0.2353-0.4922-0.0694C91.3949,42.0986,91.567,42.0648,91.7111,42.2296
		z"/>
	<path class="st7" d="M84.3639,42.8951c-0.0884-0.0562-0.1768-0.1124-0.2652-0.1686c0.0664-0.2004,0.2624-0.203,0.3633-0.1278
		C84.5925,42.6959,84.4145,42.7974,84.3639,42.8951z"/>
	<path class="st11" d="M96.8831,46.6797c0.1722,0.0704,0.218,0.1918,0.1451,0.3605C96.877,46.9612,96.8163,46.8461,96.8831,46.6797z
		"/>
	<path class="st11" d="M97.3853,48.2643c0.1499,0.0763,0.2015,0.1902,0.1334,0.3494C97.3608,48.5402,97.305,48.4282,97.3853,48.2643
		z"/>
	<path class="st11" d="M96.4093,45.2758c0.1789,0.0526,0.2014,0.1748,0.1474,0.3307
		C96.4225,45.5339,96.3238,45.4458,96.4093,45.2758z"/>
	<path class="st11" d="M97.191,47.6346c0.1687,0.0456,0.2585,0.1224,0.1146,0.2908C97.1974,47.8559,97.142,47.7659,97.191,47.6346z"
		/>
	<path class="st11" d="M96.8415,45.2439c-0.05-0.0151-0.0685-0.0481-0.0552-0.0984C96.838,45.1585,96.8564,45.1912,96.8415,45.2439z
		"/>
	<path class="st10" d="M131.1584,111.4579c-1.6492-0.0038-2.8636-0.8365-3.4221-2.2645c-0.5002-1.2788,0.0001-2.9334,1.2349-4.0842
		c1.7825-1.6612,3.4987-1.5117,4.9892,0.4298c0.5023,0.6543,0.8316,1.3973,1.0349,2.1825c0.353,1.3634-0.1664,2.4818-1.4587,3.1304
		C132.76,111.2417,131.9388,111.5362,131.1584,111.4579z"/>
	<path class="st12" d="M36.3055,111.3934c-0.0125,0.4158-0.252,0.6435-0.5578,0.7691c-0.8586,0.3527-1.4251,0.9505-1.8374,1.7893
		c-0.415,0.8444-0.9803,0.8487-1.3874,0.013c-0.4086-0.8389-1.0016-1.3924-1.8182-1.8128c-0.8317-0.4282-0.8298-0.9445,0.022-1.3828
		c0.8252-0.4245,1.3948-1.0078,1.8051-1.8353c0.3646-0.7353,0.9747-0.7798,1.3104-0.0888c0.4476,0.9211,1.0561,1.6019,2.007,1.9817
		C36.1114,110.9314,36.2551,111.1538,36.3055,111.3934z"/>
	<path class="st12" d="M111.6879,35.8514c-0.3932,0.0243-0.5697-0.2496-0.6855-0.532c-0.3371-0.8223-0.9262-1.3489-1.7201-1.7378
		c-0.7673-0.3759-0.7571-0.935,0.0222-1.3204c0.7622-0.377,1.2974-0.895,1.6744-1.6671c0.4105-0.8408,0.9634-0.8446,1.3713-0.0173
		c0.378,0.7667,0.9127,1.2852,1.6671,1.6752c0.832,0.4302,0.8271,0.9793-0.0068,1.377c-0.7472,0.3564-1.2891,0.8452-1.615,1.6066
		C112.2672,35.5356,112.0901,35.8516,111.6879,35.8514z"/>
	<path class="st13" d="M131.5529,45.1141c-1.1689-0.0544-1.9883-0.9245-1.9203-2.039c0.0693-1.1345,1.3238-2.3528,2.3607-2.2925
		c0.9349,0.0544,2.1083,1.7041,2.0194,2.8391C133.9449,44.4874,132.8149,45.1729,131.5529,45.1141z"/>
	<path class="st11" d="M39.2088,32.3234c-1.1641,0.0114-2.0546-0.778-2.0773-1.8412c-0.0254-1.1886,1.1654-2.5089,2.2734-2.5206
		c0.9364-0.0099,2.1006,1.4646,2.1267,2.6936C41.5519,31.6103,40.5775,32.31,39.2088,32.3234z"/>
	<path class="st8" d="M26.1158,60.0727c-0.7956-0.0206-1.3979-0.631-1.3501-1.3682c0.0487-0.7512,0.9788-1.6778,1.6375-1.6313
		c0.5232,0.037,1.4063,1.2051,1.4236,1.8831C27.8428,59.5807,27.0516,60.0969,26.1158,60.0727z"/>
	<path class="st14" d="M42.9329,47.235c-0.6898,0.0133-1.3217-0.5011-1.3239-1.0778c-0.0021-0.5378,0.8609-1.5028,1.3755-1.5383
		c0.511-0.0352,1.2926,0.9466,1.315,1.6517C44.3174,46.8335,43.7712,47.2189,42.9329,47.235z"/>
	<path class="st15" d="M54.2251,127.2353c-0.5792-0.0343-1.1051-0.373-1.1785-1.1721c-0.066-0.7181,0.909-1.7883,1.5477-1.76
		c0.4748,0.021,1.3924,1.2256,1.4046,1.8438C56.0097,126.6996,55.2619,127.2092,54.2251,127.2353z"/>
	<path class="st1" d="M77.1803,72.3119c-2.4394-0.0323-4.4454-1.4357-5.1291-3.5659c-0.6198-1.9311-1.1897-3.8819-1.6852-5.8483
		c-0.7424-2.9465,0.7548-5.6065,3.6833-6.506c2.5687-0.789,5.1603-1.512,7.7649-2.173c2.9063-0.7375,5.5076,0.689,6.4272,3.5424
		c0.654,2.0292,1.2316,4.0914,1.6921,6.1723c0.565,2.5526-0.9719,5.1386-3.4879,5.9074c-2.797,0.8547-5.6286,1.5966-8.4493,2.3726
		C77.6705,72.3032,77.3179,72.2966,77.1803,72.3119z M77.1459,69.3454c0.0728-0.006,0.2376,0.0059,0.3875-0.0359
		c2.6663-0.7431,5.3394-1.4639,7.9916-2.2547c1.0933-0.326,1.8-1.5191,1.5366-2.5572c-0.5057-1.9928-1.0518-3.9773-1.6555-5.9425
		c-0.3738-1.2168-1.6403-1.8341-2.8541-1.4977c-2.5409,0.7043-5.0813,1.4106-7.6169,2.1337
		c-1.3327,0.38-2.0375,1.5286-1.6985,2.8682c0.4851,1.9166,1.0166,3.8225,1.578,5.7182
		C75.0998,68.7404,76.0555,69.3551,77.1459,69.3454z"/>
	<path class="st16" d="M77.1459,69.3454c-1.0904,0.0097-2.0461-0.6049-2.3313-1.5679c-0.5614-1.8957-1.0929-3.8016-1.578-5.7182
		c-0.339-1.3396,0.3657-2.4881,1.6985-2.8682c2.5356-0.7231,5.076-1.4294,7.6169-2.1337c1.2138-0.3364,2.4803,0.2809,2.8541,1.4977
		c0.6036,1.9652,1.1498,3.9497,1.6555,5.9425c0.2634,1.0381-0.4433,2.2312-1.5366,2.5572
		c-2.6522,0.7908-5.3253,1.5116-7.9916,2.2547C77.3835,69.3512,77.2187,69.3393,77.1459,69.3454z"/>
</g>
</svg>
