<svg width="936" height="953" viewBox="0 0 936 953" fill="none" xmlns="http://www.w3.org/2000/svg">
<g clip-path="url(#clip0_49_61)">
<path d="M489.731 413.212C462.29 405.309 406.08 414.502 330.699 419.525C255.318 424.547 187.162 429.367 175.768 430.627C164.375 431.886 155.328 431.806 148.795 448.245C142.263 464.684 299.217 674.863 299.217 674.863L500.565 751.508L728.307 654.215C728.307 654.215 732.247 642.461 724.621 629.281C717.433 616.884 640.46 548.024 610.383 520.437C580.38 492.814 502.136 416.813 489.731 413.212V413.212Z" fill="#858585"/>
<path d="M412.152 686.699C448.887 699.329 504.319 685.297 586.207 672.569C649.316 662.743 713.33 651.745 715.956 651.631C725.847 651.204 728.843 640.233 728.843 640.233C728.843 640.233 732.362 654.803 724.78 678.981C717.97 700.69 700.327 748.588 697.609 754.288C694.891 759.989 693.164 770.106 677.29 773.121C661.416 776.136 429.512 816.664 415.699 818.799C401.308 821.037 385.999 824.318 371.055 818.926C357.58 814.127 344.756 801.694 325.144 785.751C315.756 778.118 264.212 729.235 215.3 677.555C182.617 643.034 147.44 605.426 127.84 581.62C116.604 567.949 114.263 560.111 114.116 555.187C113.629 540.212 143.772 461.169 146.29 454.022C149.971 443.486 154.504 438.253 154.504 438.253C154.504 438.253 159.232 446.14 175.693 463.32C190.2 478.42 234.558 528.894 274.574 568.247C372.65 664.579 394.981 680.816 412.152 686.699V686.699Z" fill="#5E6367"/>
<path d="M480.189 440.491C442.53 427.091 415.289 432.124 395.375 443.672C369.133 458.931 359.185 487.001 356.236 499.674C351.007 521.829 365.949 559.378 433.862 583.882C507.785 610.554 534.438 582.33 540.419 573.248C546.687 563.707 562.097 526.993 546.544 493.469C537.774 474.631 514.817 452.798 480.189 440.491V440.491Z" fill="#282828"/>
<path d="M477.312 347.348L436.664 460.005C436.664 460.005 435.949 478.98 463.331 489.047C491.405 499.363 501.6 487.431 501.6 487.431L543.929 370.448L477.312 347.348V347.348Z" fill="#6DA3AC"/>
<path d="M588.224 142.399C517.173 116.264 454.984 151.524 431.095 216.401C407.206 281.278 440.632 352.722 503.892 374.798C577.316 400.353 636.86 366.262 662.562 292.86C687.155 222.866 647.03 163.991 588.224 142.399V142.399Z" fill="#FF4F28"/>
<path d="M556.365 159.066C545.774 146.94 520.773 145.1 491.167 164.017C461.675 182.787 443.972 222.358 464.952 233.675C483.52 243.683 493.768 222.278 496.871 216.342C503.829 203.054 519.928 190.254 534.02 190.344C538.687 190.404 549.502 192.245 555.032 186.248C563.48 176.994 562.747 166.364 556.365 159.066V159.066Z" fill="#FDFFFC"/>
<path d="M230.196 467.187C223.345 488.506 249.279 507.917 272.998 516.475C305.918 528.352 329.908 521.335 336.154 502.857C343.065 482.371 318.107 462.251 294.508 453.362C267.112 443.165 237.206 445.425 230.196 467.187V467.187Z" fill="#DD0C22"/>
<path d="M252.298 464.234C247.421 476.586 262.126 487.637 279.41 493.873C296.695 500.109 313.253 499.028 317.991 487.062C322.729 475.096 303.643 462.028 289.802 457.908C276.015 453.808 257.455 451.108 252.298 464.234V464.234Z" fill="#FF4C2A"/>
</g>
<defs>
<clipPath id="clip0_49_61">
<rect width="723.685" height="751.84" fill="white" transform="translate(255.168) rotate(19.8398)"/>
</clipPath>
</defs>
</svg>
