<?xml version="1.0" standalone="no"?>
<!DOCTYPE svg PUBLIC "-//W3C//DTD SVG 20010904//EN"
 "http://www.w3.org/TR/2001/REC-SVG-20010904/DTD/svg10.dtd">
<svg version="1.0" xmlns="http://www.w3.org/2000/svg"
 width="750.000000pt" height="750.000000pt" viewBox="0 0 750.000000 750.000000"
 preserveAspectRatio="xMidYMid meet">

<g transform="translate(0.000000,750.000000) scale(0.100000,-0.100000)"
fill="#000000" stroke="none">
<path d="M3530 7494 c-594 -52 -1014 -167 -1490 -410 -573 -292 -1068 -736
-1424 -1279 -320 -488 -522 -1046 -592 -1640 -25 -207 -25 -624 -1 -825 58
-482 173 -866 384 -1285 526 -1045 1527 -1789 2683 -1995 231 -41 387 -54 660
-55 427 0 771 53 1159 180 1143 374 2032 1262 2405 2404 129 395 181 730 181
1166 -1 294 -15 445 -70 720 -51 258 -173 663 -196 649 -5 -3 -6 1 -4 9 11 27
-144 353 -258 542 -431 718 -1100 1281 -1872 1575 -299 113 -600 187 -925 225
-128 15 -544 27 -640 19z m613 -30 c612 -60 1227 -288 1737 -642 368 -256 727
-622 974 -991 111 -166 216 -354 294 -525 62 -136 78 -186 32 -103 -12 23 -38
68 -57 100 l-35 57 -73 -68 c-129 -121 -262 -172 -445 -172 -148 0 -271 31
-557 138 -234 88 -350 122 -415 122 -18 0 -69 -12 -113 -26 -90 -29 -260 -57
-319 -52 -40 3 -62 21 -170 142 -14 16 -26 26 -26 22 0 -4 -7 -1 -15 8 -8 8
-15 18 -15 23 0 11 -37 43 -50 43 -5 0 -12 5 -16 12 -5 7 -2 9 7 4 8 -4 5 0
-5 8 -11 9 -24 16 -29 16 -4 0 -5 5 -2 10 3 6 -7 18 -24 28 -16 9 -33 28 -36
41 -4 15 -9 20 -13 14 -5 -7 -11 -6 -20 3 -7 8 -10 14 -7 14 3 0 -5 11 -19 23
-14 13 -23 27 -19 30 3 4 -1 7 -11 7 -9 0 -14 5 -11 10 3 6 -2 13 -12 17 -21
7 -43 29 -67 66 -10 15 -23 24 -29 20 -5 -3 -7 -1 -3 5 6 9 -10 26 -24 27 -9
0 -54 45 -45 45 4 0 -7 11 -26 23 -19 13 -33 29 -31 36 1 6 -11 19 -28 29 -16
11 -27 22 -24 25 4 3 -5 12 -20 18 -14 7 -26 18 -26 26 0 7 -9 18 -20 25 -11
7 -20 19 -20 26 0 7 -11 17 -24 22 -13 5 -27 18 -31 29 -3 11 -12 20 -18 18
-7 -1 -11 4 -10 11 2 6 -4 12 -13 12 -8 0 -13 4 -9 9 3 5 -3 12 -14 16 -11 3
-34 26 -53 50 -18 24 -39 45 -45 45 -7 0 -12 4 -10 9 3 10 -50 61 -64 61 -6 0
-8 4 -4 9 3 5 -4 12 -15 16 -11 4 -18 11 -15 16 4 5 0 9 -8 9 -8 0 -21 8 -28
18 -13 16 -12 16 6 2 11 -8 -16 21 -60 65 -44 43 -80 82 -80 87 0 4 -4 8 -8 8
-9 -1 -67 61 -67 72 0 5 -7 8 -16 8 -8 0 -13 3 -11 8 5 7 -18 33 -24 28 -6 -5
-87 83 -82 88 3 2 -8 13 -23 23 -31 19 -64 50 -64 58 0 13 -45 55 -58 55 -9 0
-13 3 -9 6 8 8 -34 54 -49 54 -7 0 -15 9 -19 20 -3 11 -17 28 -31 39 -13 10
-24 24 -24 31 0 6 -4 8 -10 5 -5 -3 -10 -2 -10 3 0 12 -36 53 -41 47 -3 -2
-27 22 -54 55 -28 32 -55 59 -60 59 -19 1 -87 101 -73 106 50 16 364 51 533
59 117 5 372 -4 528 -20z m-2680 -3319 c118 -31 199 -91 248 -185 21 -39 24
-59 24 -155 0 -100 -3 -116 -29 -173 -19 -41 -46 -78 -78 -107 l-50 -45 108
-167 c59 -93 114 -178 122 -190 l14 -23 -123 1 -124 1 -110 166 -110 167 -67
3 -68 3 0 -171 0 -170 -105 0 -105 0 0 530 0 530 198 0 c143 0 214 -4 255 -15z
m2359 -122 c52 -50 42 -125 -22 -158 -108 -56 -223 72 -137 153 51 48 112 50
159 5z m3659 -420 c-7 -129 -8 -111 -8 147 0 258 1 276 8 148 4 -82 4 -214 0
-295z m-2521 272 l0 -135 75 0 75 0 0 -85 0 -85 -75 0 -75 0 0 -235 0 -235
-105 0 -105 0 0 235 0 235 -50 0 -51 0 3 83 3 82 48 3 47 3 0 135 0 134 105 0
105 0 0 -135z m-2563 -148 c94 -48 160 -137 178 -238 7 -35 5 -37 -27 -47 -18
-6 -120 -39 -227 -72 l-193 -62 20 -20 c32 -33 97 -40 164 -17 32 10 59 19 62
19 2 0 23 -32 46 -71 47 -80 49 -76 -37 -108 -144 -55 -320 -25 -410 71 -134
141 -114 382 42 500 107 82 272 101 382 45z m773 -4 c58 -29 63 -30 67 -12 5
17 16 19 100 19 l94 0 -3 -362 c-3 -408 -1 -392 -82 -472 -149 -145 -410 -150
-579 -12 l-28 23 56 66 c32 37 59 67 61 67 3 0 27 -15 55 -34 75 -52 162 -59
243 -21 51 25 76 70 76 140 l0 57 -39 -35 c-51 -46 -100 -62 -191 -61 -97 0
-161 27 -228 98 -66 70 -87 128 -87 241 0 79 4 97 29 148 35 69 97 129 169
163 46 22 63 25 138 21 73 -2 97 -8 149 -34z m1283 4 c32 -14 57 -31 57 -37 0
-5 -16 -34 -35 -64 l-36 -53 -46 24 c-84 42 -176 21 -158 -36 8 -26 24 -35
122 -66 58 -18 89 -34 115 -60 102 -102 55 -267 -95 -330 -54 -22 -193 -20
-257 4 -55 21 -120 66 -120 83 0 8 37 62 70 101 4 5 28 -6 53 -24 78 -55 197
-52 197 5 0 30 -26 46 -117 75 -97 31 -148 75 -169 147 -14 49 -14 59 0 107
20 70 74 122 155 148 14 5 67 7 117 5 72 -2 103 -8 147 -29z m1286 -2 c83 -46
148 -138 166 -236 l7 -37 -179 -57 c-98 -31 -199 -63 -225 -71 -27 -9 -48 -19
-48 -24 0 -16 69 -40 114 -40 27 0 63 9 86 20 l39 20 14 -22 c52 -84 78 -131
75 -133 -2 -1 -21 -11 -43 -22 -145 -73 -339 -49 -442 54 -67 67 -87 122 -88
238 0 85 3 106 23 142 45 86 106 140 201 180 48 20 69 23 151 20 83 -2 102 -7
149 -32z m751 -65 c0 -97 -1 -100 -22 -100 -82 0 -172 -68 -196 -147 -7 -23
-12 -98 -12 -177 l0 -136 -105 0 -105 0 0 315 0 315 94 0 c106 0 106 0 106
-89 l0 -45 23 31 c30 41 73 75 132 106 84 44 85 42 85 -73z m-2650 -245 l0
-315 -100 0 -100 0 0 315 0 315 100 0 100 0 0 -315z m3060 86 c0 -5 6 -8 13
-8 6 1 118 -33 247 -75 129 -43 248 -80 263 -84 16 -4 31 -12 33 -19 5 -13
-43 -325 -51 -334 -3 -2 -11 1 -18 9 -10 10 -9 11 2 5 9 -5 12 -4 7 3 -4 7
-13 12 -21 12 -7 0 -16 9 -20 20 -3 11 -10 19 -14 17 -6 -2 -71 64 -174 175
-14 15 -28 24 -31 21 -3 -4 -6 1 -6 9 0 9 -16 30 -35 47 -20 17 -32 31 -28 31
4 0 -7 10 -23 23 -42 31 -64 54 -64 67 0 6 -3 9 -7 7 -5 -3 -28 15 -53 39 -25
24 -39 44 -32 44 6 0 12 -4 12 -9z"/>
<path d="M1220 3801 l0 -161 95 0 c102 0 133 9 172 52 45 48 49 142 9 203 -32
48 -62 59 -173 63 l-103 4 0 -161z"/>
<path d="M2160 3582 c-40 -20 -65 -60 -75 -119 l-7 -42 141 47 140 46 -17 29
c-33 56 -114 74 -182 39z"/>
<path d="M2971 3573 c-64 -32 -101 -119 -81 -192 22 -81 86 -131 169 -131 63
0 98 13 139 53 31 30 32 33 32 117 0 84 -1 87 -32 117 -18 18 -46 37 -61 42
-42 16 -127 13 -166 -6z"/>
<path d="M5490 3583 c-40 -21 -65 -61 -75 -119 l-6 -40 135 45 c75 25 136 49
136 53 0 4 -13 22 -28 39 -36 40 -108 50 -162 22z"/>
</g>
</svg>
