<svg width="546" height="512" viewBox="0 0 546 512" fill="none" xmlns="http://www.w3.org/2000/svg">
<path d="M464.193 82.7444C459.097 120.414 409.272 145.378 352.905 138.508C296.539 131.637 254.975 95.5118 260.071 57.8417C265.168 20.1991 314.99 -4.76225 371.358 2.10784C427.741 8.9761 469.305 45.1018 464.193 82.7444Z" fill="#E9573F"/>
<path d="M535.74 398.021C556.816 429.336 542.449 473.819 503.643 497.375C464.826 520.933 416.268 514.666 395.176 483.351C374.085 452.064 388.453 407.581 427.272 384.023C466.094 360.437 514.65 366.734 535.74 398.021Z" fill="#E9573F"/>
<path d="M288.986 313.605C288.986 378.356 224.479 430.823 144.908 430.823C65.3552 430.823 0.8479 378.354 0.8479 313.605C0.8479 248.856 65.3571 196.355 144.908 196.355C224.479 196.355 288.986 248.856 288.986 313.605Z" fill="#E9573F"/>
</svg>
