<svg width="69" height="560" viewBox="0 0 69 560" fill="none" xmlns="http://www.w3.org/2000/svg">
<path d="M35 0L35 453" stroke="#947841" stroke-width="4"/>
<g clip-path="url(#clip0_615_35)">
<path fill-rule="evenodd" clip-rule="evenodd" d="M21.5768 477.604L46.8213 477.604L46.8213 460.884L46.4535 460.884L43.0827 457.535L37.7087 456.95L37.7087 456.253L34.4993 456.602L31.2903 456.253L31.2903 456.95L25.9154 457.535L22.5441 460.884L21.5768 460.884L21.5768 477.604Z" fill="#A3A2A3"/>
<path d="M17.7194 471.742C17.7194 471.354 17.7965 470.969 17.9463 470.609C18.0961 470.25 18.3157 469.924 18.5925 469.649C18.8692 469.374 19.1978 469.156 19.5594 469.007C19.921 468.859 20.3086 468.782 20.7 468.782L48.3002 468.782C48.6914 468.782 49.0789 468.859 49.4403 469.008C49.8018 469.156 50.1303 469.374 50.4069 469.649C50.6835 469.924 50.903 470.25 51.0527 470.61C51.2023 470.969 51.2794 471.354 51.2793 471.742V471.742C51.2792 472.527 50.9653 473.28 50.4066 473.835C49.8479 474.39 49.0902 474.702 48.3002 474.702L20.7 474.702C20.3087 474.702 19.9212 474.625 19.5596 474.477C19.1981 474.328 18.8696 474.11 18.5928 473.835C18.316 473.56 18.0964 473.234 17.9466 472.875C17.7967 472.516 17.7196 472.131 17.7194 471.742Z" fill="#CBCAC8"/>
<path d="M17.7194 463.492C17.7194 462.706 18.0334 461.953 18.5924 461.398C19.1513 460.842 19.9094 460.53 20.7 460.53L48.3002 460.53C49.0905 460.531 49.8483 460.843 50.407 461.398C50.9656 461.954 51.2794 462.707 51.2793 463.492V463.492C51.2792 463.88 51.202 464.265 51.0522 464.624C50.9025 464.983 50.683 465.309 50.4063 465.584C50.1297 465.858 49.8013 466.076 49.4399 466.225C49.0786 466.373 48.6913 466.45 48.3002 466.45L20.7 466.45C19.9099 466.45 19.1521 466.139 18.5931 465.584C18.0342 465.029 17.7199 464.277 17.7194 463.492V463.492Z" fill="#CBCAC8"/>
<path d="M24.9427 455.96C24.9427 455.571 25.0197 455.187 25.1694 454.827C25.3191 454.468 25.5386 454.142 25.8153 453.867C26.092 453.592 26.4205 453.374 26.782 453.225C27.1435 453.077 27.531 453 27.9223 453L41.0746 453C41.8649 453 42.6228 453.312 43.1817 453.867C43.7405 454.422 44.0546 455.175 44.0547 455.96V455.96C44.0547 456.349 43.9777 456.734 43.828 457.093C43.6782 457.452 43.4587 457.779 43.182 458.054C42.9052 458.329 42.5767 458.547 42.2151 458.695C41.8535 458.844 41.466 458.921 41.0746 458.92L27.92 458.92C27.5287 458.921 27.1412 458.844 26.7796 458.695C26.4181 458.547 26.0896 458.329 25.8129 458.054C25.5362 457.779 25.3167 457.452 25.167 457.093C25.0173 456.734 24.9403 456.349 24.9404 455.96L24.9427 455.96Z" fill="#CBCAC8"/>
<path d="M34.4995 560C53.5241 560 68.999 544.915 68.999 526.369C68.999 516.847 64.9482 506.407 58.168 498.44L57.8825 498.069C56.9984 496.951 49.2393 486.957 49.2393 479.985C49.2376 479.372 49.0294 478.778 48.6481 478.296C48.2668 477.814 47.7341 477.473 47.1351 477.327L47.1351 477.244L23.6036 477.244L23.6036 477.422L21.3316 477.462C20.831 477.67 20.4033 478.019 20.1024 478.468C19.8015 478.916 19.6408 479.442 19.6406 479.981C19.6406 486.147 13.4038 495.124 11.0007 498.064C10.9088 498.176 10.8287 498.298 10.7616 498.427L10.5359 498.786C3.92984 506.756 0.00134062 517.042 0.0013398 526.369C-0.000500789 544.914 15.4744 560 34.4995 560Z" fill="#FFD111"/>
<path d="M20.7909 510.7C20.7845 511.001 20.8019 512.88 22.0193 514.139C22.7374 514.881 23.7107 515.257 24.9134 515.257C26.4931 515.257 27.7537 514.751 28.6594 513.75C30.3857 511.846 30.1697 508.817 30.1352 508.44L30.1352 507.976L38.2639 507.976L38.2639 508.44C38.229 508.819 38.0129 511.846 39.7392 513.751C40.6454 514.751 41.9055 515.258 43.4852 515.258C44.6879 515.258 45.6607 514.882 46.3788 514.14C47.5971 512.881 47.6141 511.001 47.6082 510.701C47.6247 510.432 47.6578 509.057 46.6795 507.988C45.9278 507.166 44.7991 506.75 43.3234 506.75L39.4978 506.75L39.4978 477.29L38.2621 477.29L38.2621 506.75L30.1333 506.75L30.1333 477.29L28.898 477.29L28.898 506.75L25.0752 506.75C23.6013 506.75 22.4731 507.166 21.7191 507.988C20.7417 509.056 20.7734 510.432 20.7909 510.7ZM39.4955 508.535L39.4997 507.977L43.327 507.977C44.4327 507.977 45.2506 508.255 45.7595 508.805C46.4583 509.559 46.3774 510.621 46.377 510.628L46.3728 510.67L46.3728 510.71C46.3728 510.726 46.4188 512.333 45.4842 513.293C45.0019 513.789 44.3481 514.03 43.4856 514.03C42.2733 514.03 41.3249 513.661 40.6615 512.934C39.2248 511.352 39.4932 508.562 39.4955 508.535V508.535ZM22.6409 508.805C23.1498 508.257 23.9677 507.977 25.0734 507.977L28.8998 507.977L28.9031 508.535C28.9058 508.562 29.1752 511.352 27.7376 512.933C27.0765 513.661 26.1285 514.03 24.9134 514.03C24.0514 514.03 23.3963 513.788 22.9154 513.292C21.9816 512.333 22.0262 510.725 22.0262 510.71L22.0262 510.669L22.0225 510.628C22.023 510.621 21.943 509.559 22.6386 508.805L22.6409 508.805Z" fill="#A4842E"/>
<path d="M38.5832 507.687L38.8784 507.687C39.3732 507.687 39.7744 507.288 39.7744 506.797L39.7744 478.134C39.7744 477.642 39.3732 477.244 38.8784 477.244L38.5832 477.244C38.0884 477.244 37.6872 477.642 37.6872 478.134L37.6872 506.797C37.6872 507.288 38.0884 507.687 38.5832 507.687Z" fill="#A4842E"/>
<path d="M29.3801 507.687L29.6753 507.687C30.1701 507.687 30.5713 507.288 30.5713 506.797L30.5713 478.134C30.5713 477.642 30.1701 477.244 29.6753 477.244L29.3801 477.244C28.8852 477.244 28.4841 477.642 28.4841 478.134L28.4841 506.797C28.4841 507.288 28.8852 507.687 29.3801 507.687Z" fill="#A4842E"/>
<path d="M24.9882 515.257L43.103 515.257C45.0444 515.257 46.6182 513.694 46.6182 511.765L46.6182 510.948C46.6182 509.02 45.0444 507.456 43.103 507.456L24.9882 507.456C23.0468 507.456 21.473 509.02 21.473 510.948L21.473 511.765C21.473 513.694 23.0468 515.257 24.9882 515.257Z" fill="#A4842E"/>
<path d="M57.6254 511.366C57.9058 511.378 58.1793 511.456 58.4232 511.594C58.6671 511.732 58.8743 511.926 59.0277 512.159C59.1067 512.278 60.9678 515.135 62.2849 519.641C64.032 525.614 63.9961 531.715 62.1815 537.288C61.1462 540.469 59.3817 543.339 56.9404 545.818C55.0132 547.772 52.6648 549.484 49.9597 550.904C45.3917 553.303 41.3804 554.049 41.2113 554.079C40.7543 554.154 40.2857 554.048 39.9066 553.784C39.5275 553.519 39.2684 553.117 39.1851 552.664C39.1018 552.211 39.2011 551.744 39.4615 551.364C39.7218 550.983 40.1224 550.719 40.5768 550.629C40.6458 550.615 44.3187 549.917 48.4003 547.755C53.7415 544.926 57.2485 541.041 58.8226 536.208C62.6886 524.333 56.14 514.18 56.0729 514.079C55.8951 513.809 55.7957 513.495 55.7856 513.173C55.7755 512.85 55.8551 512.531 56.0156 512.251C56.1761 511.971 56.4114 511.74 56.6955 511.584C56.9796 511.427 57.3015 511.352 57.6259 511.366L57.6254 511.366Z" fill="#F4E6AA"/>
<path d="M38.3532 507.455L38.6357 507.37C39.1093 507.227 39.3767 506.73 39.2331 506.259L30.613 478.019C30.4694 477.548 29.9691 477.283 29.4955 477.425L29.213 477.51C28.7395 477.653 28.472 478.15 28.6156 478.621L37.2357 506.861C37.3793 507.332 37.8797 507.597 38.3532 507.455Z" fill="#A4842E"/>
</g>
<defs>
<clipPath id="clip0_615_35">
<rect width="69" height="107" fill="white" transform="translate(69 560) rotate(-180)"/>
</clipPath>
</defs>
</svg>
