<svg width="48" height="48" viewBox="0 0 48 48" fill="none" xmlns="http://www.w3.org/2000/svg">
<path d="M24 47C36.7025 47 47 36.7025 47 24C47 11.2975 36.7025 1 24 1C11.2975 1 1 11.2975 1 24C1 36.7025 11.2975 47 24 47Z" fill="#82D66D"/>
<path d="M38.5946 29.6401C38.6066 31.1798 38.3108 32.7064 37.7246 34.1301C25.2346 37.1601 12.2946 34.4701 10.2346 34.0001C9.67582 32.615 9.39385 31.1337 9.40459 29.6401H9.51459C9.51459 29.6401 24.3146 33.2301 38.4046 29.7101L38.5946 29.6401Z" fill="white"/>
<path d="M37.7254 34.13C35.9354 38.4 31.3754 41.36 24.0354 41.36C16.6254 41.36 12.0054 38.33 10.2354 34C12.2954 34.47 25.2353 37.16 37.7254 34.13Z" fill="#EA5A47"/>
<path d="M24 47C36.7025 47 47 36.7025 47 24C47 11.2975 36.7025 1 24 1C11.2975 1 1 11.2975 1 24C1 36.7025 11.2975 47 24 47Z" stroke="black" stroke-width="2" stroke-linecap="round" stroke-linejoin="round"/>
<path d="M38.5946 29.6401C38.6066 31.1798 38.3108 32.7064 37.7246 34.1301C25.2346 37.1601 12.2946 34.4701 10.2346 34.0001C9.67582 32.615 9.39385 31.1337 9.40459 29.6401H9.51459C9.51459 29.6401 24.3146 33.2301 38.4046 29.7101L38.5946 29.6401Z" stroke="black" stroke-width="2" stroke-linecap="round" stroke-linejoin="round"/>
<path d="M37.7254 34.13C35.9354 38.4 31.3754 41.36 24.0354 41.36C16.6254 41.36 12.0054 38.33 10.2354 34C12.2954 34.47 25.2353 37.16 37.7254 34.13Z" stroke="black" stroke-width="2" stroke-linecap="round" stroke-linejoin="round"/>
<path d="M19.6939 20.4034C19.3226 19.5679 18.717 18.8579 17.9504 18.3597C17.1838 17.8614 16.2891 17.5962 15.3748 17.5962C14.4604 17.5962 13.5658 17.8614 12.7991 18.3597C12.0325 18.8579 11.4269 19.5679 11.0557 20.4034" stroke="black" stroke-width="2" stroke-miterlimit="10" stroke-linecap="round"/>
<path d="M36.9439 20.4034C36.5726 19.5679 35.967 18.8579 35.2004 18.3597C34.4338 17.8614 33.5391 17.5962 32.6248 17.5962C31.7104 17.5962 30.8158 17.8614 30.0491 18.3597C29.2825 18.8579 28.6769 19.5679 28.3057 20.4034" stroke="black" stroke-width="2" stroke-miterlimit="10" stroke-linecap="round"/>
</svg>
