<svg width="866" height="866" viewBox="0 0 866 866" fill="none" xmlns="http://www.w3.org/2000/svg">
<g clip-path="url(#clip0_386_33)">
<path d="M170.826 416.087C170.584 414.743 158.733 395.435 161.014 373.723C163.296 352.011 176.428 341.63 186.011 333.752C197.628 324.222 226.648 302.996 237.533 310.837C248.418 318.678 247.813 326.53 257.48 325.093C267.147 323.657 262.732 349.582 262.732 349.582L170.826 416.087V416.087Z" fill="#464C4F"/>
<path d="M552.732 201.419C552.732 201.419 545.093 180.489 526.878 173.685C499.473 163.383 470.165 171.509 445.787 185.179C437.949 189.573 429.403 196.358 431.617 207.41C432.92 213.794 435.398 221.056 432 223.929C428.67 226.82 523.17 206.556 552.732 201.419V201.419Z" fill="#464C4F"/>
<path d="M366.423 567.99C359.11 585.296 380.769 664.216 364.15 697.61C347.532 731.005 281.121 755.382 255.577 720.588C233.072 689.894 201.54 616.511 180.2 535.42C158.86 454.329 153.309 411.34 189.785 375.803C219.037 347.277 282.856 302.952 348.734 266.865C414.654 230.753 472.027 198.581 515.818 192.124C555.083 186.327 595.94 207.526 647.789 264.565C699.619 321.672 755.458 393.947 768.256 421.033C786.934 460.532 746.795 514.912 690.294 507.836C645.308 502.214 605.608 445.932 584.458 446.58C563.307 447.228 373.053 552.206 366.423 567.99V567.99Z" fill="#5E6268"/>
<path d="M591.15 418.524C590.218 424.169 600.659 425.941 612.883 435.762C625.107 445.584 661.822 480.204 681.176 484.776C705.293 490.432 716.191 480.736 716.042 474.786C715.893 468.837 695.47 464.694 664.44 447.318C633.411 429.943 593.105 406.784 591.15 418.524V418.524Z" fill="#9E9E9E"/>
<path d="M226.881 608.618C222.561 612.179 245.669 683.229 270.26 704.955C290.767 723.052 321.651 707.384 331.175 697.775C350.159 678.648 344.974 652.756 338.462 653.221C331.993 653.661 323.682 680.86 302.284 682.387C278.403 684.054 264.58 658.794 247.926 634.78C232.941 613.131 231.01 605.221 226.881 608.618V608.618Z" fill="#9E9E9E"/>
<path d="M266.443 400.148C264.667 401.144 249.031 409.798 249.031 409.798L238.555 390.914C238.555 390.914 230.379 375.522 214.292 384.998C199.87 393.483 206.996 405.481 208.331 407.862C209.667 410.244 218.734 426.616 218.734 426.616C218.734 426.616 202.096 435.719 199.071 437.529C196.045 439.34 184.624 445.972 192.952 460.824C200.819 474.853 213.285 469.171 216.019 467.753C218.752 466.334 235.596 456.889 235.596 456.889C235.596 456.889 244.28 472.679 245.756 475.21C247.231 477.74 254.458 489.511 269.05 481.328C284.984 472.393 275.979 458.262 275.979 458.262L265.892 440.07C265.892 440.07 280.86 431.848 283.434 430.348C287.109 428.173 297.506 421.034 289.35 406.085C281.249 391.333 268.261 399.128 266.443 400.148V400.148Z" fill="#9E9E9E"/>
<path d="M381.87 500.534C402.293 489.082 409.565 463.243 398.113 442.82C386.661 422.397 360.821 415.125 340.399 426.578C319.976 438.03 312.704 463.869 324.156 484.292C335.608 504.714 361.448 511.986 381.87 500.534Z" fill="#AFAFAF"/>
<path d="M509.272 429.833C529.695 418.381 536.967 392.541 525.514 372.118C514.062 351.696 488.223 344.424 467.8 355.876C447.378 367.328 440.106 393.168 451.558 413.59C463.01 434.013 488.849 441.285 509.272 429.833Z" fill="#AFAFAF"/>
<path d="M374.445 487.395C388.1 479.738 392.962 462.461 385.305 448.806C377.648 435.151 360.372 430.289 346.717 437.946C333.062 445.603 328.199 462.88 335.857 476.535C343.514 490.19 360.79 495.052 374.445 487.395Z" fill="#C8C8C8"/>
<path d="M502.036 416.929C515.691 409.272 520.553 391.995 512.896 378.34C505.239 364.685 487.962 359.823 474.307 367.48C460.653 375.137 455.79 392.414 463.447 406.069C471.104 419.724 488.381 424.586 502.036 416.929Z" fill="#C8C8C8"/>
<path d="M493.663 320.087C504.663 313.918 508.58 300 502.411 289C496.243 277.999 482.325 274.082 471.324 280.251C460.324 286.419 456.407 300.338 462.575 311.338C468.744 322.338 482.662 326.256 493.663 320.087Z" fill="#2086FA"/>
<path d="M554.544 336.09C565.544 329.922 569.461 316.003 563.293 305.003C557.124 294.003 543.206 290.086 532.205 296.254C521.205 302.423 517.288 316.341 523.456 327.341C529.625 338.342 543.543 342.259 554.544 336.09Z" fill="#06AC48"/>
<path d="M574.674 278.814C585.675 272.645 589.592 258.727 583.423 247.727C577.255 236.726 563.336 232.809 552.336 238.978C541.335 245.146 537.418 259.065 543.587 270.065C549.756 281.066 563.674 284.983 574.674 278.814Z" fill="#F72E26"/>
<path d="M512.471 260.25C523.472 254.082 527.389 240.164 521.22 229.163C515.052 218.163 501.133 214.246 490.133 220.414C479.132 226.583 475.215 240.501 481.384 251.502C487.553 262.502 501.471 266.419 512.471 260.25Z" fill="#FDB700"/>
</g>
<defs>
<clipPath id="clip0_386_33">
<rect width="635.436" height="635.436" fill="white" transform="translate(0 310.795) rotate(-29.2818)"/>
</clipPath>
</defs>
</svg>
