<svg width="1201" height="1202" viewBox="0 0 1201 1202" fill="none" xmlns="http://www.w3.org/2000/svg">
<g clip-path="url(#clip0_561_2)">
<path d="M98.8209 662.196C132.674 939.212 384.683 1136.33 661.698 1102.48C938.714 1068.63 1135.84 816.619 1101.98 539.603C1068.13 262.588 816.121 65.4656 539.106 99.3186C262.09 133.172 64.9679 385.181 98.8209 662.196Z" fill="#FFE28F"/>
<path d="M466.642 922.689C474.541 987.326 533.343 1033.32 597.98 1025.42C662.617 1017.52 708.612 958.721 700.713 894.084C692.814 829.447 634.012 783.452 569.375 791.351C504.738 799.25 458.742 858.052 466.642 922.689Z" fill="#E1C374"/>
<path d="M354.649 395.062C361.42 450.465 411.822 489.89 467.225 483.119C522.628 476.349 562.052 425.947 555.282 370.544C548.511 315.141 498.109 275.716 442.706 282.487C387.303 289.257 347.879 339.659 354.649 395.062Z" fill="#E1C374"/>
<path d="M133.042 525.655C143.198 608.76 218.8 667.897 301.905 657.741C385.01 647.585 444.146 571.982 433.99 488.878C423.835 405.773 348.232 346.636 265.127 356.792C182.023 366.948 122.886 442.551 133.042 525.655Z" fill="#E1C374"/>
<path d="M764.625 445.078C769.139 482.013 802.74 508.296 839.675 503.783C876.611 499.269 902.894 465.668 898.38 428.732C893.866 391.797 860.265 365.514 823.33 370.028C786.394 374.541 760.111 408.143 764.625 445.078Z" fill="#E1C374"/>
<path d="M774.468 664.473C778.981 701.408 812.583 727.691 849.518 723.178C886.453 718.664 912.736 685.063 908.223 648.127C903.709 611.192 870.108 584.909 833.172 589.423C796.237 593.936 769.954 627.538 774.468 664.473Z" fill="#E1C374"/>
<path d="M594.852 263.894C599.366 300.829 632.967 327.112 669.903 322.598C706.838 318.084 733.121 284.483 728.607 247.548C724.094 210.612 690.493 184.33 653.557 188.843C616.622 193.357 590.339 226.958 594.852 263.894Z" fill="#E1C374"/>
<path d="M962.467 675.436C964.724 693.904 981.524 707.045 999.992 704.789C1018.46 702.532 1031.6 685.731 1029.34 667.263C1027.09 648.796 1010.29 635.654 991.819 637.911C973.351 640.168 960.21 656.969 962.467 675.436Z" fill="#E1C374"/>
<path d="M401.095 219.696C403.352 238.163 420.152 251.305 438.62 249.048C457.088 246.791 470.229 229.99 467.972 211.523C465.715 193.055 448.915 179.914 430.447 182.17C411.979 184.427 398.838 201.228 401.095 219.696Z" fill="#E1C374"/>
<path d="M306.879 976.151C309.136 994.619 325.936 1007.76 344.404 1005.5C362.872 1003.25 376.013 986.446 373.756 967.978C371.499 949.511 354.699 936.369 336.231 938.626C317.763 940.883 304.622 957.683 306.879 976.151Z" fill="#E1C374"/>
<path d="M571.052 485.703C574.437 513.405 599.638 533.117 627.339 529.731C655.041 526.346 674.753 501.145 671.368 473.444C667.983 445.742 642.782 426.03 615.08 429.415C587.379 432.801 567.666 458.001 571.052 485.703Z" fill="#E1C374"/>
<path d="M804.754 287.452C807.011 305.92 823.811 319.062 842.279 316.805C860.747 314.548 873.888 297.747 871.631 279.28C869.374 260.812 852.574 247.67 834.106 249.927C815.638 252.184 802.497 268.985 804.754 287.452Z" fill="#E1C374"/>
<path d="M217.71 885.234C222.224 922.169 255.825 948.452 292.76 943.939C329.696 939.425 355.979 905.824 351.465 868.888C346.951 831.953 313.35 805.67 276.415 810.184C239.479 814.697 213.196 848.299 217.71 885.234Z" fill="#E1C374"/>
<path d="M938.915 427.172C892.101 432.893 859.813 474.171 865.534 520.985C871.255 567.8 912.533 600.087 959.347 594.366C1006.16 588.645 1038.45 547.367 1032.73 500.553C1028.68 453.535 985.729 421.451 938.915 427.172" fill="#E1C374"/>
<circle cx="600.402" cy="600.899" r="505" transform="rotate(83.0326 600.402 600.899)" fill="url(#paint0_linear_561_2)" fill-opacity="0.28"/>
</g>
<defs>
<linearGradient id="paint0_linear_561_2" x1="241.902" y1="240.399" x2="985.902" y2="931.399" gradientUnits="userSpaceOnUse">
<stop stop-opacity="0.67"/>
<stop offset="1"/>
</linearGradient>
<clipPath id="clip0_561_2">
<rect width="1078" height="1078" fill="white" transform="translate(1070.04 0.49707) rotate(83.0326)"/>
</clipPath>
</defs>
</svg>
