<svg width="48" height="48" viewBox="0 0 48 48" fill="none" xmlns="http://www.w3.org/2000/svg">
<path d="M24.2002 1.31641C11.6283 1.31641 1.40039 11.5443 1.40039 24.1162C1.40039 36.688 11.6283 46.916 24.2002 46.916C36.772 46.916 47 36.688 47 24.1162C47 11.5443 36.772 1.31641 24.2002 1.31641Z" fill="#E75F5F"/>
<path d="M10.775 21.8247C9.69827 22.9266 7.65997 25.3125 7.48257 27.7411C7.37147 29.2621 8.60107 30.6842 10.1191 30.7945C11.6884 30.9088 13.0579 29.7264 13.1737 28.1581C13.3506 25.7289 11.6801 23.072 10.775 21.8247Z" fill="#92D3F5"/>
<path d="M24 47C36.7025 47 47 36.7025 47 24C47 11.2975 36.7025 1 24 1C11.2975 1 1 11.2975 1 24C1 36.7025 11.2975 47 24 47Z" stroke="black" stroke-width="2" stroke-miterlimit="10"/>
<path d="M14.5 36.0001C16.3768 32.1675 20.3239 29.8036 24.5 30.0001C28.3343 30.1805 31.7926 32.4927 33.5 36.0001" stroke="black" stroke-width="2" stroke-miterlimit="10" stroke-linecap="round" stroke-linejoin="round"/>
<path d="M8.38712 29.6299C7.85452 29.0973 7.56132 28.3893 7.56152 27.6362C7.56152 25.1573 9.90482 22.7854 10.0045 22.6857C10.2119 22.4783 10.5476 22.4785 10.7548 22.6857C10.8546 22.7855 13.198 25.1576 13.1985 27.637L13.1987 27.6371C13.198 29.1906 11.9334 30.4549 10.3798 30.4547C9.62752 30.4556 8.91972 30.1624 8.38712 29.6299Z" stroke="black" stroke-width="2" stroke-miterlimit="10"/>
<path d="M18 19C18 20.6568 16.6552 22 15 22C13.3447 22 12 20.6567 12 19C12 17.3448 13.3447 16 15 16C16.6552 16 18 17.3448 18 19Z" fill="black"/>
<path d="M36 19C36 20.6568 34.6553 22 33 22C31.3447 22 30 20.6567 30 19C30 17.3448 31.3447 16 33 16C34.6553 16 36 17.3448 36 19Z" fill="black"/>
</svg>
