<svg width="948" height="580" viewBox="0 0 948 580" fill="none" xmlns="http://www.w3.org/2000/svg">
<path d="M474 579.332C633.794 579.332 763.332 449.794 763.332 290C763.332 130.206 633.794 0.667847 474 0.667847C314.206 0.667847 184.668 130.206 184.668 290C184.668 449.794 314.206 579.332 474 579.332Z" fill="#909FD6"/>
<path d="M263.751 418.541C237.102 420.354 218.055 410.208 204.148 393.731C209.938 408.801 217.324 422.978 225.468 436.695C246.328 444.514 268.513 447.788 294.189 429.336C281.662 423.195 270.38 418.108 263.751 418.541ZM611.605 35.8943C612.822 44.7685 606.545 49.4221 591.313 45.7155C565.475 39.4386 542.802 66.7106 529.789 89.5184C504.167 134.349 398.461 184.862 398.38 145.983C398.353 127.613 304.984 168.791 293.053 150.339C281.77 132.916 248.059 139.625 241.079 118.738C209.486 161.601 190.382 212.376 185.885 265.434C196.085 284.859 209.262 300.119 222.465 306.72C240.321 315.649 323.274 348.061 335.395 327.364C355.605 292.841 476.868 317.272 473.973 299.118C468.427 264.351 539.637 292.895 565.231 248.091C578.272 225.283 606.708 207.778 632.573 214.055C662.767 221.387 700.022 169.603 697.209 105.941C673.44 77.3087 644.375 53.526 611.605 35.8943V35.8943ZM697.668 473.518C688.524 478.009 679.514 481.445 671.289 482.338C610.468 488.912 597.319 536.584 556.52 528.414C535.497 524.193 506.819 561.259 474 563.505C452.346 565.098 430.795 567.88 409.446 571.838C430.615 576.746 452.269 579.26 474 579.332C564.122 579.332 644.585 538.127 697.668 473.518V473.518Z" fill="#5651A6"/>
<path d="M615.365 37.6799C641.022 52.1233 664.323 70.3978 684.465 91.8721C751.861 87.6244 792.958 103.479 789.522 139.95C787.736 159.024 773.695 181.67 750.806 205.83C693.772 265.921 580.112 335.589 451.3 384.451C361.774 418.406 281.987 435.856 224.954 436.776C166.92 437.723 132.478 421.544 135.616 387.995C137.672 365.945 155.962 339.133 185.723 310.697C185.209 303.798 184.668 296.98 184.668 290C184.668 267.057 187.617 244.844 192.676 223.416C76.2834 304.123 0.527832 393 0.527832 462.317C0.527832 556.659 140.189 585.636 332.635 542.32C380.6 531.372 427.818 517.374 474 500.411C579.517 462.019 676.619 411.128 755.351 356.557C871.717 275.85 947.472 186.972 947.472 117.656C947.472 23.3404 807.812 -5.66314 615.365 37.6799V37.6799Z" fill="#422A90"/>
<path d="M158.965 291.38C139.194 310.482 122.086 332.158 108.101 355.826C94.8434 378.877 83.5613 404.824 85.2658 428.092C86.2127 451.251 103.718 465.049 127.418 471.434C151.065 477.576 177.336 479.199 204.094 477.63C257.611 475.139 310.651 466.376 362.125 451.522C414.18 437.859 464.693 418.379 514.042 396.437C613.093 352.076 705.38 293.946 788.169 223.768C798.125 214.758 809.029 206.209 818.579 197.091C827.589 187.973 836.084 177.801 843.2 167.411C857.323 146.633 865.548 122.31 852.264 103.777C839.006 84.9459 811.816 74.6919 785.896 69.389C759.355 64.3296 731.515 63.1662 703.918 66.3858C730.757 59.2161 759.03 55.6989 787.466 57.8362C815.333 60.3254 846.23 65.9529 868.849 90.8711C879.942 103.235 885.055 121.85 883.026 138.11C881.484 154.641 875.099 169.224 867.794 182.346C860.272 195.468 851.831 207.372 842.226 218.817C832.702 229.747 823.044 239.839 813.222 250.282C733.896 331.287 638.985 396.761 535.605 443.973C432.361 490.509 319.864 522.732 203.877 518.484C175.307 517.402 145.518 514.886 116.326 503.658C101.878 498.003 87.0514 489.67 75.7422 476.169C64.3862 462.854 58.6694 445.636 59.8065 428.173C62.4579 395.354 78.8536 369.949 96.3044 347.655C114.043 325.662 135.199 306.661 158.965 291.38V291.38Z" fill="#5651A6"/>
</svg>
