<svg id="Rocket" xmlns="http://www.w3.org/2000/svg" viewBox="0 0 142.69 287.57"><defs><style>.cls-1{fill:#455a64;}.cls-2{fill:#263238;}.cls-3{fill:#37474f;}.cls-4,.cls-6{fill:#ffc727;}.cls-5,.cls-7{opacity:0.1;}.cls-6{opacity:0.6;}.cls-8{opacity:0.2;}.cls-9{fill:#fff;opacity:0.5;}.cls-10{fill:#dbdbdb;}.cls-11{fill:#c7c7c7;}</style></defs><path class="cls-1" d="M277.12,117V262.26H222.84V117c0-20.15-1.36-31.84,10.64-48.79,10.45-14.76,14.57-16.7,16.5-16.7s6,1.94,16.5,16.7C278.48,85.16,277.12,96.85,277.12,117Z" transform="translate(-178.65 -51.51)"/><path class="cls-2" d="M260.92,60.79H239c6.46-8,9.41-9.28,10.95-9.28S254.46,52.75,260.92,60.79Z" transform="translate(-178.65 -51.51)"/><path class="cls-3" d="M230.79,72.29c3.2-.09,6.4-.16,9.59-.19L250,72l9.6.06c3.19,0,6.39.1,9.59.19-3.2.09-6.4.16-9.59.19l-9.6.06-9.6-.06C237.19,72.45,234,72.38,230.79,72.29Z" transform="translate(-178.65 -51.51)"/><path class="cls-3" d="M222.86,103.08q6.78-.14,13.57-.19l13.57-.06,13.57.06q6.78,0,13.57.19-6.78.14-13.57.19l-13.57.06-13.57-.06Q229.65,103.23,222.86,103.08Z" transform="translate(-178.65 -51.51)"/><path class="cls-3" d="M223.24,94.73q6.69-.14,13.37-.19L250,94.48l13.37.06q6.67,0,13.37.19-6.69.13-13.37.19L250,95l-13.37-.06Q229.92,94.88,223.24,94.73Z" transform="translate(-178.65 -51.51)"/><path class="cls-3" d="M222.86,135.43q6.78-.13,13.57-.19l13.57-.06,13.57.06q6.78,0,13.57.19-6.78.13-13.57.19l-13.57.06-13.57-.06Q229.65,135.57,222.86,135.43Z" transform="translate(-178.65 -51.51)"/><path class="cls-3" d="M222.86,167.78q6.78-.14,13.57-.19l13.57-.06,13.57.06q6.78,0,13.57.19-6.78.14-13.57.19L250,168,236.43,168Q229.65,167.93,222.86,167.78Z" transform="translate(-178.65 -51.51)"/><path class="cls-3" d="M222.86,200.13q6.78-.13,13.57-.19l13.57-.06,13.57.06q6.78,0,13.57.19-6.78.13-13.57.19l-13.57.06-13.57-.06Q229.65,200.27,222.86,200.13Z" transform="translate(-178.65 -51.51)"/><path class="cls-3" d="M222.86,232.48q6.78-.15,13.57-.2l13.57-.05,13.57.05q6.78.06,13.57.2-6.78.14-13.57.19l-13.57.06-13.57-.06Q229.65,232.61,222.86,232.48Z" transform="translate(-178.65 -51.51)"/><path class="cls-3" d="M232.84,74.36a.71.71,0,0,1-1.41,0,.71.71,0,1,1,1.41,0Zm0,0a.59.59,0,0,0-.64-.58.58.58,0,0,0,0,1.15A.59.59,0,0,0,232.84,74.36Z" transform="translate(-178.65 -51.51)"/><path class="cls-3" d="M240,74.36a.7.7,0,1,1-.64-.71A.7.7,0,0,1,240,74.36Zm0,0a.59.59,0,0,0-.64-.58.58.58,0,0,0,0,1.15A.59.59,0,0,0,240,74.36Z" transform="translate(-178.65 -51.51)"/><path class="cls-3" d="M247.06,74.36a.7.7,0,0,1-.64.7.71.71,0,1,1,0-1.41A.7.7,0,0,1,247.06,74.36Zm0,0a.58.58,0,0,0-.64-.58.58.58,0,0,0,0,1.15A.58.58,0,0,0,247.06,74.36Z" transform="translate(-178.65 -51.51)"/><path class="cls-3" d="M254.18,74.36a.71.71,0,0,1-1.41,0,.71.71,0,1,1,1.41,0Zm0,0a.59.59,0,0,0-.64-.58.58.58,0,0,0,0,1.15A.59.59,0,0,0,254.18,74.36Z" transform="translate(-178.65 -51.51)"/><path class="cls-3" d="M261.29,74.36a.7.7,0,0,1-.64.7.71.71,0,1,1,0-1.41A.71.71,0,0,1,261.29,74.36Zm0,0a.59.59,0,0,0-.64-.58.58.58,0,0,0,0,1.15A.59.59,0,0,0,261.29,74.36Z" transform="translate(-178.65 -51.51)"/><path class="cls-3" d="M268.4,74.36a.7.7,0,1,1-.64-.71A.7.7,0,0,1,268.4,74.36Zm0,0a.59.59,0,0,0-.64-.58.58.58,0,0,0,0,1.15A.59.59,0,0,0,268.4,74.36Z" transform="translate(-178.65 -51.51)"/><path class="cls-3" d="M232.84,104.91a.71.71,0,1,1-.64-.7A.71.71,0,0,1,232.84,104.91Zm0,0a.59.59,0,0,0-.64-.57.58.58,0,0,0,0,1.15A.59.59,0,0,0,232.84,104.91Z" transform="translate(-178.65 -51.51)"/><path class="cls-3" d="M240,104.91a.7.7,0,1,1-.64-.7A.71.71,0,0,1,240,104.91Zm0,0a.59.59,0,0,0-.64-.57.58.58,0,0,0,0,1.15A.59.59,0,0,0,240,104.91Z" transform="translate(-178.65 -51.51)"/><path class="cls-3" d="M225.73,104.91a.71.71,0,1,1-.65-.7A.71.71,0,0,1,225.73,104.91Zm0,0a.59.59,0,0,0-.65-.57.58.58,0,0,0,0,1.15A.59.59,0,0,0,225.73,104.91Z" transform="translate(-178.65 -51.51)"/><path class="cls-3" d="M247.06,104.91a.7.7,0,0,1-.64.71.71.71,0,0,1-.76-.71.7.7,0,0,1,.76-.7A.7.7,0,0,1,247.06,104.91Zm0,0a.58.58,0,0,0-.64-.57.58.58,0,0,0,0,1.15A.58.58,0,0,0,247.06,104.91Z" transform="translate(-178.65 -51.51)"/><path class="cls-3" d="M254.18,104.91a.71.71,0,1,1-.64-.7A.71.71,0,0,1,254.18,104.91Zm0,0a.59.59,0,0,0-.64-.57.58.58,0,0,0,0,1.15A.59.59,0,0,0,254.18,104.91Z" transform="translate(-178.65 -51.51)"/><path class="cls-3" d="M261.29,104.91a.71.71,0,0,1-.64.71.71.71,0,1,1,0-1.41A.7.7,0,0,1,261.29,104.91Zm0,0a.59.59,0,0,0-.64-.57.58.58,0,0,0,0,1.15A.59.59,0,0,0,261.29,104.91Z" transform="translate(-178.65 -51.51)"/><path class="cls-3" d="M268.4,104.91a.7.7,0,0,1-.64.71.71.71,0,1,1,0-1.41A.7.7,0,0,1,268.4,104.91Zm0,0a.59.59,0,0,0-.64-.57.58.58,0,0,0,0,1.15A.59.59,0,0,0,268.4,104.91Z" transform="translate(-178.65 -51.51)"/><path class="cls-3" d="M275.52,104.91a.71.71,0,1,1-.65-.7A.71.71,0,0,1,275.52,104.91Zm0,0a.59.59,0,0,0-.65-.57.58.58,0,0,0,0,1.15A.59.59,0,0,0,275.52,104.91Z" transform="translate(-178.65 -51.51)"/><path class="cls-3" d="M232.84,96.85a.7.7,0,0,1-.64.7.7.7,0,1,1,0-1.4A.7.7,0,0,1,232.84,96.85Zm0,0a.58.58,0,1,0-.64.58A.59.59,0,0,0,232.84,96.85Z" transform="translate(-178.65 -51.51)"/><path class="cls-3" d="M240,96.85a.7.7,0,0,1-.64.7.7.7,0,1,1,0-1.4A.7.7,0,0,1,240,96.85Zm0,0a.58.58,0,1,0-.64.58A.59.59,0,0,0,240,96.85Z" transform="translate(-178.65 -51.51)"/><path class="cls-3" d="M225.73,96.85a.71.71,0,0,1-.65.7.71.71,0,0,1-.76-.7.71.71,0,0,1,1.41,0Zm0,0a.59.59,0,0,0-.65-.58.58.58,0,0,0,0,1.16A.59.59,0,0,0,225.73,96.85Z" transform="translate(-178.65 -51.51)"/><path class="cls-3" d="M247.06,96.85a.69.69,0,0,1-.64.7.71.71,0,0,1-.76-.7.7.7,0,0,1,.76-.7A.69.69,0,0,1,247.06,96.85Zm0,0a.58.58,0,0,0-.64-.58.57.57,0,0,0-.51.58.58.58,0,1,0,1.15,0Z" transform="translate(-178.65 -51.51)"/><path class="cls-3" d="M254.18,96.85a.7.7,0,0,1-.64.7.7.7,0,1,1,0-1.4A.7.7,0,0,1,254.18,96.85Zm0,0a.58.58,0,1,0-.64.58A.59.59,0,0,0,254.18,96.85Z" transform="translate(-178.65 -51.51)"/><path class="cls-3" d="M261.29,96.85a.7.7,0,0,1-.64.7.7.7,0,1,1,0-1.4A.7.7,0,0,1,261.29,96.85Zm0,0a.58.58,0,1,0-.64.58A.59.59,0,0,0,261.29,96.85Z" transform="translate(-178.65 -51.51)"/><path class="cls-3" d="M268.4,96.85a.69.69,0,0,1-.64.7.7.7,0,1,1,0-1.4A.69.69,0,0,1,268.4,96.85Zm0,0a.59.59,0,0,0-.64-.58.57.57,0,0,0-.51.58.58.58,0,0,0,.51.58A.59.59,0,0,0,268.4,96.85Z" transform="translate(-178.65 -51.51)"/><path class="cls-3" d="M275.52,96.85a.71.71,0,0,1-.65.7.71.71,0,0,1-.76-.7.71.71,0,0,1,1.41,0Zm0,0a.59.59,0,0,0-.65-.58.57.57,0,0,0-.51.58.58.58,0,0,0,.51.58A.59.59,0,0,0,275.52,96.85Z" transform="translate(-178.65 -51.51)"/><path class="cls-3" d="M232.84,137.68a.71.71,0,1,1-.64-.7A.71.71,0,0,1,232.84,137.68Zm0,0a.59.59,0,0,0-.64-.57.57.57,0,0,0-.52.57.58.58,0,1,0,1.16,0Z" transform="translate(-178.65 -51.51)"/><path class="cls-3" d="M240,137.68a.7.7,0,1,1-1.4,0,.7.7,0,1,1,1.4,0Zm0,0a.59.59,0,0,0-.64-.57.57.57,0,0,0-.52.57.58.58,0,1,0,1.16,0Z" transform="translate(-178.65 -51.51)"/><path class="cls-3" d="M225.73,137.68a.71.71,0,1,1-1.41,0,.71.71,0,0,1,1.41,0Zm0,0a.59.59,0,0,0-.65-.57.58.58,0,0,0,0,1.15A.59.59,0,0,0,225.73,137.68Z" transform="translate(-178.65 -51.51)"/><path class="cls-3" d="M247.06,137.68a.7.7,0,1,1-.64-.7A.7.7,0,0,1,247.06,137.68Zm0,0a.58.58,0,0,0-.64-.57.56.56,0,0,0-.51.57.58.58,0,1,0,1.15,0Z" transform="translate(-178.65 -51.51)"/><path class="cls-3" d="M254.18,137.68a.71.71,0,1,1-.64-.7A.71.71,0,0,1,254.18,137.68Zm0,0a.59.59,0,0,0-.64-.57.57.57,0,0,0-.52.57.58.58,0,1,0,1.16,0Z" transform="translate(-178.65 -51.51)"/><path class="cls-3" d="M261.29,137.68a.71.71,0,1,1-.64-.7A.7.7,0,0,1,261.29,137.68Zm0,0a.59.59,0,0,0-.64-.57.57.57,0,0,0-.52.57.58.58,0,1,0,1.16,0Z" transform="translate(-178.65 -51.51)"/><path class="cls-3" d="M268.4,137.68a.7.7,0,1,1-.64-.7A.7.7,0,0,1,268.4,137.68Zm0,0a.59.59,0,0,0-.64-.57.56.56,0,0,0-.51.57.57.57,0,0,0,.51.58A.59.59,0,0,0,268.4,137.68Z" transform="translate(-178.65 -51.51)"/><path class="cls-3" d="M275.52,137.68a.71.71,0,1,1-1.41,0,.71.71,0,0,1,1.41,0Zm0,0a.59.59,0,0,0-.65-.57.56.56,0,0,0-.51.57.57.57,0,0,0,.51.58A.59.59,0,0,0,275.52,137.68Z" transform="translate(-178.65 -51.51)"/><path class="cls-3" d="M232.84,170.45a.71.71,0,1,1-.64-.7A.7.7,0,0,1,232.84,170.45Zm0,0a.58.58,0,1,0-1.16,0,.58.58,0,1,0,1.16,0Z" transform="translate(-178.65 -51.51)"/><path class="cls-3" d="M240,170.45a.7.7,0,1,1-1.4,0,.7.7,0,0,1,.76-.7A.7.7,0,0,1,240,170.45Zm0,0a.58.58,0,1,0-1.16,0,.58.58,0,1,0,1.16,0Z" transform="translate(-178.65 -51.51)"/><path class="cls-3" d="M225.73,170.45a.71.71,0,1,1-1.41,0,.71.71,0,0,1,1.41,0Zm0,0a.6.6,0,0,0-.65-.58.59.59,0,0,0-.51.58.57.57,0,0,0,.51.58A.59.59,0,0,0,225.73,170.45Z" transform="translate(-178.65 -51.51)"/><path class="cls-3" d="M247.06,170.45a.7.7,0,1,1-.64-.7A.69.69,0,0,1,247.06,170.45Zm0,0a.59.59,0,0,0-.64-.58.58.58,0,0,0-.51.58.58.58,0,1,0,1.15,0Z" transform="translate(-178.65 -51.51)"/><path class="cls-3" d="M254.18,170.45a.71.71,0,1,1-.64-.7A.7.7,0,0,1,254.18,170.45Zm0,0a.58.58,0,1,0-1.16,0,.58.58,0,1,0,1.16,0Z" transform="translate(-178.65 -51.51)"/><path class="cls-3" d="M261.29,170.45a.71.71,0,1,1-.64-.7A.7.7,0,0,1,261.29,170.45Zm0,0a.58.58,0,1,0-1.16,0,.58.58,0,1,0,1.16,0Z" transform="translate(-178.65 -51.51)"/><path class="cls-3" d="M268.4,170.45a.7.7,0,1,1-1.4,0,.7.7,0,0,1,.76-.7A.69.69,0,0,1,268.4,170.45Zm0,0a.59.59,0,0,0-.64-.58.58.58,0,0,0-.51.58.57.57,0,0,0,.51.58A.59.59,0,0,0,268.4,170.45Z" transform="translate(-178.65 -51.51)"/><path class="cls-3" d="M275.52,170.45a.71.71,0,1,1-1.41,0,.71.71,0,0,1,1.41,0Zm0,0a.6.6,0,0,0-.65-.58.58.58,0,0,0-.51.58.57.57,0,0,0,.51.58A.59.59,0,0,0,275.52,170.45Z" transform="translate(-178.65 -51.51)"/><path class="cls-3" d="M232.84,203.22a.7.7,0,0,1-.64.7.7.7,0,1,1,0-1.4A.7.7,0,0,1,232.84,203.22Zm0,0a.58.58,0,1,0-.64.58A.59.59,0,0,0,232.84,203.22Z" transform="translate(-178.65 -51.51)"/><path class="cls-3" d="M240,203.22a.7.7,0,1,1-1.4,0,.7.7,0,0,1,.76-.7A.7.7,0,0,1,240,203.22Zm0,0a.58.58,0,1,0-.64.58A.59.59,0,0,0,240,203.22Z" transform="translate(-178.65 -51.51)"/><path class="cls-3" d="M225.73,203.22a.71.71,0,1,1-.65-.7A.71.71,0,0,1,225.73,203.22Zm0,0a.58.58,0,1,0-1.16,0,.57.57,0,0,0,.51.58A.59.59,0,0,0,225.73,203.22Z" transform="translate(-178.65 -51.51)"/><path class="cls-3" d="M247.06,203.22a.69.69,0,0,1-.64.7.7.7,0,1,1,0-1.4A.69.69,0,0,1,247.06,203.22Zm0,0a.58.58,0,1,0-1.15,0,.58.58,0,1,0,1.15,0Z" transform="translate(-178.65 -51.51)"/><path class="cls-3" d="M254.18,203.22a.7.7,0,0,1-.64.7.7.7,0,1,1,0-1.4A.7.7,0,0,1,254.18,203.22Zm0,0a.58.58,0,1,0-.64.58A.59.59,0,0,0,254.18,203.22Z" transform="translate(-178.65 -51.51)"/><path class="cls-3" d="M261.29,203.22a.7.7,0,0,1-.64.7.7.7,0,1,1,0-1.4A.7.7,0,0,1,261.29,203.22Zm0,0a.58.58,0,1,0-.64.58A.59.59,0,0,0,261.29,203.22Z" transform="translate(-178.65 -51.51)"/><path class="cls-3" d="M268.4,203.22a.69.69,0,0,1-.64.7.7.7,0,1,1,0-1.4A.69.69,0,0,1,268.4,203.22Zm0,0a.59.59,0,0,0-.64-.58.58.58,0,0,0-.51.58.57.57,0,0,0,.51.58A.59.59,0,0,0,268.4,203.22Z" transform="translate(-178.65 -51.51)"/><path class="cls-3" d="M275.52,203.22a.71.71,0,1,1-.65-.7A.71.71,0,0,1,275.52,203.22Zm0,0a.59.59,0,0,0-.65-.58.58.58,0,0,0-.51.58.57.57,0,0,0,.51.58A.59.59,0,0,0,275.52,203.22Z" transform="translate(-178.65 -51.51)"/><path class="cls-3" d="M232.84,236a.7.7,0,0,1-.64.7.7.7,0,1,1,0-1.4A.7.7,0,0,1,232.84,236Zm0,0a.58.58,0,1,0-.64.58A.59.59,0,0,0,232.84,236Z" transform="translate(-178.65 -51.51)"/><path class="cls-3" d="M240,236a.7.7,0,0,1-.64.7.7.7,0,1,1,0-1.4A.7.7,0,0,1,240,236Zm0,0a.58.58,0,1,0-.64.58A.59.59,0,0,0,240,236Z" transform="translate(-178.65 -51.51)"/><path class="cls-3" d="M225.73,236a.71.71,0,0,1-.65.7.71.71,0,0,1-.76-.7.71.71,0,0,1,1.41,0Zm0,0a.59.59,0,0,0-.65-.58.58.58,0,0,0-.51.58.57.57,0,0,0,.51.58A.59.59,0,0,0,225.73,236Z" transform="translate(-178.65 -51.51)"/><path class="cls-3" d="M247.06,236a.69.69,0,0,1-.64.7.71.71,0,0,1-.76-.7.7.7,0,0,1,.76-.7A.69.69,0,0,1,247.06,236Zm0,0a.58.58,0,0,0-.64-.58.58.58,0,1,0,.64.58Z" transform="translate(-178.65 -51.51)"/><path class="cls-3" d="M254.18,236a.7.7,0,0,1-.64.7.7.7,0,1,1,0-1.4A.7.7,0,0,1,254.18,236Zm0,0a.58.58,0,1,0-.64.58A.59.59,0,0,0,254.18,236Z" transform="translate(-178.65 -51.51)"/><path class="cls-3" d="M261.29,236a.7.7,0,0,1-.64.7.7.7,0,1,1,0-1.4A.7.7,0,0,1,261.29,236Zm0,0a.58.58,0,1,0-.64.58A.59.59,0,0,0,261.29,236Z" transform="translate(-178.65 -51.51)"/><path class="cls-3" d="M268.4,236a.69.69,0,0,1-.64.7.7.7,0,1,1,0-1.4A.69.69,0,0,1,268.4,236Zm0,0a.59.59,0,0,0-.64-.58.58.58,0,0,0-.51.58.57.57,0,0,0,.51.58A.59.59,0,0,0,268.4,236Z" transform="translate(-178.65 -51.51)"/><path class="cls-3" d="M275.52,236a.71.71,0,0,1-.65.7.71.71,0,0,1-.76-.7.71.71,0,0,1,1.41,0Zm0,0a.59.59,0,0,0-.65-.58.58.58,0,0,0-.51.58.57.57,0,0,0,.51.58A.59.59,0,0,0,275.52,236Z" transform="translate(-178.65 -51.51)"/><path class="cls-3" d="M250,51.51a3.62,3.62,0,0,0-1.23,1.11c-.35.43-.69.87-1,1.33q-1,1.36-1.86,2.79c-1.19,1.89-2.3,3.84-3.34,5.81a92.18,92.18,0,0,0-5.4,12.26,50.29,50.29,0,0,0-2.94,13c-.14,2.22,0,4.47-.07,6.7v6.71l.08,53.67-.08,53.68,0,26.84L234,262.26l-.13-26.84,0-26.84-.08-53.68.08-53.67V94.52c0-2.24,0-4.47.09-6.72a50.15,50.15,0,0,1,3-13.07,90.77,90.77,0,0,1,5.52-12.23c1.07-2,2.19-3.91,3.4-5.79.6-1,1.22-1.88,1.88-2.78.33-.45.67-.89,1-1.32A3.72,3.72,0,0,1,250,51.51Z" transform="translate(-178.65 -51.51)"/><path class="cls-3" d="M249.87,51.51a3.63,3.63,0,0,1,1.24,1.1c.36.43.7.87,1,1.32.66.9,1.29,1.83,1.89,2.78,1.21,1.88,2.33,3.82,3.39,5.79a90.77,90.77,0,0,1,5.52,12.23,50.15,50.15,0,0,1,3,13.07c.15,2.25.07,4.48.09,6.72l0,6.71.08,53.67-.08,53.68L266,235.42l-.12,26.84-.12-26.84-.05-26.84-.08-53.68.08-53.67V94.52c0-2.23.07-4.48-.06-6.7a50.31,50.31,0,0,0-3-13,92.12,92.12,0,0,0-5.39-12.26c-1.05-2-2.15-3.92-3.34-5.81q-.89-1.43-1.86-2.79c-.33-.46-.66-.9-1-1.33A3.53,3.53,0,0,0,249.87,51.51Z" transform="translate(-178.65 -51.51)"/><path class="cls-3" d="M222.84,123.84V262.26h-21.6V123.84c0-8-.55-12.67,4.23-19.42,4.16-5.88,5.8-6.65,6.57-6.65s2.41.77,6.57,6.65C223.38,111.17,222.84,115.82,222.84,123.84Z" transform="translate(-178.65 -51.51)"/><rect class="cls-3" x="44.14" y="68.81" width="4.47" height="1.82"/><rect class="cls-3" x="44.14" y="85.91" width="4.47" height="1.82"/><rect class="cls-3" x="44.14" y="103.01" width="4.47" height="1.82"/><rect class="cls-3" x="44.14" y="120.11" width="4.47" height="1.82"/><path class="cls-2" d="M201.62,113.28c3.48-.21,6.95-.22,10.42-.25s6.94,0,10.41.25c-3.47.21-6.94.22-10.41.25S205.1,113.49,201.62,113.28Z" transform="translate(-178.65 -51.51)"/><path class="cls-2" d="M201.22,130.13c3.6-.21,7.21-.22,10.82-.25s7.21,0,10.82.25c-3.61.2-7.22.22-10.82.25S204.82,130.33,201.22,130.13Z" transform="translate(-178.65 -51.51)"/><path class="cls-2" d="M201.22,148.89c3.6-.21,7.21-.22,10.82-.25s7.21,0,10.82.25c-3.61.2-7.22.22-10.82.25S204.82,149.09,201.22,148.89Z" transform="translate(-178.65 -51.51)"/><path class="cls-2" d="M201.22,167.65c3.6-.21,7.21-.22,10.82-.25s7.21,0,10.82.25c-3.61.2-7.22.22-10.82.25S204.82,167.85,201.22,167.65Z" transform="translate(-178.65 -51.51)"/><path class="cls-2" d="M201.22,186.41c3.6-.21,7.21-.22,10.82-.25s7.21,0,10.82.25c-3.61.2-7.22.22-10.82.25S204.82,186.61,201.22,186.41Z" transform="translate(-178.65 -51.51)"/><path class="cls-2" d="M201.22,205.17c3.6-.21,7.21-.22,10.82-.25s7.21,0,10.82.25c-3.61.2-7.22.22-10.82.25S204.82,205.37,201.22,205.17Z" transform="translate(-178.65 -51.51)"/><path class="cls-2" d="M201.22,223.93c3.6-.21,7.21-.22,10.82-.25s7.21,0,10.82.25c-3.61.2-7.22.22-10.82.24S204.82,224.13,201.22,223.93Z" transform="translate(-178.65 -51.51)"/><path class="cls-2" d="M201.22,242.68c3.6-.2,7.21-.22,10.82-.24s7.21,0,10.82.24c-3.61.21-7.22.23-10.82.25S204.82,242.89,201.22,242.68Z" transform="translate(-178.65 -51.51)"/><path class="cls-2" d="M216.68,124l-4.59.13c-1.55,0-3.12.09-4.69.09h-.22V124l0-4.55v-.26h.25c3.09,0,6.18,0,9.28.1h.15v.15C216.8,121,216.71,122.55,216.68,124Zm0,0c0-1.56-.13-3.08-.15-4.55l.15.14c-3.1.08-6.19.08-9.28.11l.25-.25,0,4.55-.22-.22c1.52,0,3,0,4.58.08Z" transform="translate(-178.65 -51.51)"/><path class="cls-2" d="M212.68,114.69a.77.77,0,1,1-.64-.77A.78.78,0,0,1,212.68,114.69Zm0,0a.52.52,0,1,0-1,0,.52.52,0,1,0,1,0Z" transform="translate(-178.65 -51.51)"/><path class="cls-2" d="M219.79,114.69a.77.77,0,0,1-.64.77.78.78,0,1,1,0-1.54A.76.76,0,0,1,219.79,114.69Zm0,0a.52.52,0,1,0-1,0,.52.52,0,1,0,1,0Z" transform="translate(-178.65 -51.51)"/><path class="cls-2" d="M205.57,114.69a.78.78,0,0,1-.64.77.78.78,0,1,1,0-1.54A.78.78,0,0,1,205.57,114.69Zm0,0a.52.52,0,0,0-.64-.51.53.53,0,0,0,0,1A.53.53,0,0,0,205.57,114.69Z" transform="translate(-178.65 -51.51)"/><path class="cls-2" d="M212.68,131.75A.77.77,0,1,1,212,131,.78.78,0,0,1,212.68,131.75Zm0,0a.52.52,0,1,0-1,0,.52.52,0,1,0,1,0Z" transform="translate(-178.65 -51.51)"/><path class="cls-2" d="M219.79,131.75a.77.77,0,0,1-.64.77.78.78,0,1,1,0-1.54A.76.76,0,0,1,219.79,131.75Zm0,0a.52.52,0,1,0-1,0,.52.52,0,1,0,1,0Z" transform="translate(-178.65 -51.51)"/><path class="cls-2" d="M205.57,131.75a.78.78,0,0,1-.64.77.78.78,0,1,1,0-1.54A.78.78,0,0,1,205.57,131.75Zm0,0a.52.52,0,0,0-.64-.51.53.53,0,0,0,0,1A.53.53,0,0,0,205.57,131.75Z" transform="translate(-178.65 -51.51)"/><path class="cls-2" d="M212.68,150.59a.78.78,0,0,1-.64.76.77.77,0,1,1,0-1.53A.78.78,0,0,1,212.68,150.59Zm0,0a.52.52,0,1,0-1,0,.52.52,0,1,0,1,0Z" transform="translate(-178.65 -51.51)"/><path class="cls-2" d="M219.79,150.59a.77.77,0,1,1-.64-.77A.77.77,0,0,1,219.79,150.59Zm0,0a.52.52,0,1,0-1,0,.52.52,0,1,0,1,0Z" transform="translate(-178.65 -51.51)"/><path class="cls-2" d="M205.57,150.59a.77.77,0,1,1-.64-.77A.78.78,0,0,1,205.57,150.59Zm0,0a.52.52,0,1,0-1,0,.52.52,0,0,0,.4.51A.52.52,0,0,0,205.57,150.59Z" transform="translate(-178.65 -51.51)"/><path class="cls-2" d="M212.68,169.42a.78.78,0,0,1-.64.77.77.77,0,1,1,0-1.53A.78.78,0,0,1,212.68,169.42Zm0,0a.53.53,0,0,0-.64-.51.54.54,0,0,0,0,1A.53.53,0,0,0,212.68,169.42Z" transform="translate(-178.65 -51.51)"/><path class="cls-2" d="M219.79,169.42a.77.77,0,1,1-.64-.76A.76.76,0,0,1,219.79,169.42Zm0,0a.52.52,0,0,0-.64-.51.54.54,0,0,0,0,1A.52.52,0,0,0,219.79,169.42Z" transform="translate(-178.65 -51.51)"/><path class="cls-2" d="M205.57,169.42a.77.77,0,1,1-.64-.76A.78.78,0,0,1,205.57,169.42Zm0,0a.52.52,0,1,0-1,0,.52.52,0,0,0,.4.52A.53.53,0,0,0,205.57,169.42Z" transform="translate(-178.65 -51.51)"/><path class="cls-2" d="M212.68,188.26a.78.78,0,0,1-.64.77.78.78,0,1,1,.64-.77Zm0,0a.52.52,0,1,0-1,0,.52.52,0,1,0,1,0Z" transform="translate(-178.65 -51.51)"/><path class="cls-2" d="M219.79,188.26a.77.77,0,1,1-.64-.76A.75.75,0,0,1,219.79,188.26Zm0,0a.52.52,0,1,0-1,0,.52.52,0,1,0,1,0Z" transform="translate(-178.65 -51.51)"/><path class="cls-2" d="M205.57,188.26a.77.77,0,1,1-.64-.76A.77.77,0,0,1,205.57,188.26Zm0,0a.52.52,0,0,0-.64-.51.53.53,0,0,0,0,1A.53.53,0,0,0,205.57,188.26Z" transform="translate(-178.65 -51.51)"/><path class="cls-2" d="M212.68,207.1a.77.77,0,1,1-.64-.77A.78.78,0,0,1,212.68,207.1Zm0,0a.52.52,0,1,0-.64.52A.53.53,0,0,0,212.68,207.1Z" transform="translate(-178.65 -51.51)"/><path class="cls-2" d="M219.79,207.1a.76.76,0,0,1-.64.76.77.77,0,1,1,0-1.53A.76.76,0,0,1,219.79,207.1Zm0,0a.53.53,0,0,0-.64-.52.54.54,0,0,0,0,1A.53.53,0,0,0,219.79,207.1Z" transform="translate(-178.65 -51.51)"/><path class="cls-2" d="M205.57,207.1a.77.77,0,0,1-.64.76.78.78,0,1,1,.64-.76Zm0,0a.53.53,0,0,0-.64-.52.55.55,0,0,0-.4.52.52.52,0,1,0,1,0Z" transform="translate(-178.65 -51.51)"/><path class="cls-2" d="M212.68,225.94a.78.78,0,0,1-.64.76.77.77,0,1,1,0-1.53A.78.78,0,0,1,212.68,225.94Zm0,0a.53.53,0,0,0-.64-.52.53.53,0,1,0,.64.52Z" transform="translate(-178.65 -51.51)"/><path class="cls-2" d="M219.79,225.94a.77.77,0,1,1-.64-.77A.77.77,0,0,1,219.79,225.94Zm0,0a.52.52,0,1,0-1,0,.52.52,0,1,0,1,0Z" transform="translate(-178.65 -51.51)"/><path class="cls-2" d="M205.57,225.94a.77.77,0,1,1-.64-.77A.78.78,0,0,1,205.57,225.94Zm0,0a.52.52,0,1,0-1,0,.52.52,0,0,0,.4.51A.52.52,0,0,0,205.57,225.94Z" transform="translate(-178.65 -51.51)"/><path class="cls-2" d="M212.68,244.77a.78.78,0,0,1-.64.77.78.78,0,1,1,.64-.77Zm0,0a.52.52,0,1,0-1,0,.52.52,0,1,0,1,0Z" transform="translate(-178.65 -51.51)"/><path class="cls-2" d="M219.79,244.77a.77.77,0,1,1-.64-.76A.75.75,0,0,1,219.79,244.77Zm0,0a.52.52,0,1,0-1,0,.52.52,0,1,0,1,0Z" transform="translate(-178.65 -51.51)"/><path class="cls-2" d="M205.57,244.77a.77.77,0,1,1-.64-.76A.77.77,0,0,1,205.57,244.77Zm0,0a.52.52,0,0,0-.64-.51.53.53,0,1,0,.64.51Z" transform="translate(-178.65 -51.51)"/><path class="cls-2" d="M207.84,107.89a.39.39,0,1,1-.39-.39A.38.38,0,0,1,207.84,107.89Z" transform="translate(-178.65 -51.51)"/><path class="cls-2" d="M209.37,110a.39.39,0,0,1-.39.38.39.39,0,0,1,0-.77A.39.39,0,0,1,209.37,110Z" transform="translate(-178.65 -51.51)"/><path class="cls-2" d="M212.42,110a.38.38,0,0,1-.38.38.39.39,0,1,1,0-.77A.38.38,0,0,1,212.42,110Z" transform="translate(-178.65 -51.51)"/><path class="cls-2" d="M215.48,110a.39.39,0,1,1-.39-.39A.38.38,0,0,1,215.48,110Z" transform="translate(-178.65 -51.51)"/><path class="cls-2" d="M210.89,107.89a.38.38,0,1,1-.38-.39A.38.38,0,0,1,210.89,107.89Z" transform="translate(-178.65 -51.51)"/><path class="cls-2" d="M214,107.89a.39.39,0,0,1-.77,0,.39.39,0,1,1,.77,0Z" transform="translate(-178.65 -51.51)"/><path class="cls-2" d="M217,107.89a.39.39,0,0,1-.39.38.39.39,0,0,1,0-.77A.39.39,0,0,1,217,107.89Z" transform="translate(-178.65 -51.51)"/><path class="cls-2" d="M209.37,121.75a.4.4,0,0,1-.39.39.39.39,0,0,1-.38-.39.38.38,0,0,1,.38-.38A.39.39,0,0,1,209.37,121.75Z" transform="translate(-178.65 -51.51)"/><path class="cls-2" d="M212.42,121.75a.39.39,0,0,1-.38.39.4.4,0,0,1-.39-.39.39.39,0,0,1,.39-.38A.38.38,0,0,1,212.42,121.75Z" transform="translate(-178.65 -51.51)"/><path class="cls-2" d="M215.48,121.75a.39.39,0,1,1-.77,0,.39.39,0,0,1,.77,0Z" transform="translate(-178.65 -51.51)"/><rect class="cls-3" x="18.75" y="68.81" width="3.81" height="8.57"/><path class="cls-3" d="M277.12,123.84V262.26h21.6V123.84c0-8,.54-12.67-4.24-19.42-4.16-5.88-5.8-6.65-6.56-6.65s-2.41.77-6.57,6.65C276.57,111.17,277.12,115.82,277.12,123.84Z" transform="translate(-178.65 -51.51)"/><rect class="cls-3" x="272.69" y="120.32" width="4.47" height="1.82" transform="translate(371.2 190.95) rotate(180)"/><rect class="cls-3" x="272.69" y="137.41" width="4.47" height="1.82" transform="translate(371.2 225.14) rotate(180)"/><rect class="cls-3" x="272.69" y="154.51" width="4.47" height="1.82" transform="translate(371.2 259.34) rotate(180)"/><rect class="cls-3" x="272.69" y="171.61" width="4.47" height="1.82" transform="translate(371.2 293.54) rotate(180)"/><path class="cls-2" d="M298.33,113.28c-3.47-.21-6.94-.22-10.41-.25s-6.95,0-10.42.25c3.47.21,6.95.22,10.42.25S294.86,113.49,298.33,113.28Z" transform="translate(-178.65 -51.51)"/><path class="cls-2" d="M298.74,130.13c-3.61-.21-7.22-.22-10.82-.25s-7.22,0-10.82.25c3.6.2,7.21.22,10.82.25S295.13,130.33,298.74,130.13Z" transform="translate(-178.65 -51.51)"/><path class="cls-2" d="M298.74,148.89c-3.61-.21-7.22-.22-10.82-.25s-7.22,0-10.82.25c3.6.2,7.21.22,10.82.25S295.13,149.09,298.74,148.89Z" transform="translate(-178.65 -51.51)"/><path class="cls-2" d="M298.74,167.65c-3.61-.21-7.22-.22-10.82-.25s-7.22,0-10.82.25c3.6.2,7.21.22,10.82.25S295.13,167.85,298.74,167.65Z" transform="translate(-178.65 -51.51)"/><path class="cls-2" d="M298.74,186.41c-3.61-.21-7.22-.22-10.82-.25s-7.22,0-10.82.25c3.6.2,7.21.22,10.82.25S295.13,186.61,298.74,186.41Z" transform="translate(-178.65 -51.51)"/><path class="cls-2" d="M298.74,205.17c-3.61-.21-7.22-.22-10.82-.25s-7.22,0-10.82.25c3.6.2,7.21.22,10.82.25S295.13,205.37,298.74,205.17Z" transform="translate(-178.65 -51.51)"/><path class="cls-2" d="M298.74,223.93c-3.61-.21-7.22-.22-10.82-.25s-7.22,0-10.82.25c3.6.2,7.21.22,10.82.24S295.13,224.13,298.74,223.93Z" transform="translate(-178.65 -51.51)"/><path class="cls-2" d="M298.74,242.68c-3.61-.2-7.22-.22-10.82-.24s-7.22,0-10.82.24c3.6.21,7.21.23,10.82.25S295.13,242.89,298.74,242.68Z" transform="translate(-178.65 -51.51)"/><path class="cls-2" d="M283.13,119.48v-.15h.15c3.09-.08,6.18-.08,9.28-.1h.25v.26l0,4.55v.22h-.22c-1.58,0-3.15-.06-4.7-.09l-4.58-.13C283.25,122.55,283.15,121,283.13,119.48Zm4.84,4.41c1.54,0,3.07-.08,4.59-.08l-.22.22,0-4.55.25.25c-3.1,0-6.19,0-9.28-.11l.14-.14c0,1.47-.11,3-.14,4.55Z" transform="translate(-178.65 -51.51)"/><path class="cls-2" d="M287.92,113.92a.78.78,0,1,1,0,1.54.78.78,0,0,1,0-1.54Zm0,1.29a.53.53,0,0,0,.39-.52.52.52,0,1,0-1,0A.53.53,0,0,0,287.92,115.21Z" transform="translate(-178.65 -51.51)"/><path class="cls-2" d="M280.8,113.92a.78.78,0,1,1-.64.77A.78.78,0,0,1,280.8,113.92Zm0,1.29a.52.52,0,0,0,.39-.52.51.51,0,0,0-.39-.51.52.52,0,0,0-.64.51A.53.53,0,0,0,280.8,115.21Z" transform="translate(-178.65 -51.51)"/><path class="cls-2" d="M295,113.92a.78.78,0,1,1-.64.77A.78.78,0,0,1,295,113.92Zm0,1.29a.53.53,0,0,0,.39-.52.52.52,0,1,0-1,0A.53.53,0,0,0,295,115.21Z" transform="translate(-178.65 -51.51)"/><path class="cls-2" d="M287.92,131a.78.78,0,1,1,0,1.54.78.78,0,0,1,0-1.54Zm0,1.29a.53.53,0,0,0,.39-.52.52.52,0,1,0-1,0A.53.53,0,0,0,287.92,132.27Z" transform="translate(-178.65 -51.51)"/><path class="cls-2" d="M280.8,131a.78.78,0,1,1-.64.77A.78.78,0,0,1,280.8,131Zm0,1.29a.52.52,0,0,0,.39-.52.51.51,0,0,0-.39-.51.52.52,0,0,0-.64.51A.53.53,0,0,0,280.8,132.27Z" transform="translate(-178.65 -51.51)"/><path class="cls-2" d="M295,131a.78.78,0,1,1-.64.77A.78.78,0,0,1,295,131Zm0,1.29a.53.53,0,0,0,.39-.52.52.52,0,1,0-1,0A.53.53,0,0,0,295,132.27Z" transform="translate(-178.65 -51.51)"/><path class="cls-2" d="M287.92,149.82a.77.77,0,1,1,0,1.53.78.78,0,0,1,0-1.53Zm0,1.28a.52.52,0,0,0,.39-.51.52.52,0,1,0-1,0A.52.52,0,0,0,287.92,151.1Z" transform="translate(-178.65 -51.51)"/><path class="cls-2" d="M280.8,149.82a.77.77,0,1,1,0,1.53.78.78,0,0,1,0-1.53Zm0,1.28a.51.51,0,0,0,.39-.51.52.52,0,0,0-.39-.52.53.53,0,0,0-.64.52A.52.52,0,0,0,280.8,151.1Z" transform="translate(-178.65 -51.51)"/><path class="cls-2" d="M295,149.82a.78.78,0,1,1-.64.77A.77.77,0,0,1,295,149.82Zm0,1.28a.52.52,0,0,0,.39-.51.52.52,0,1,0-1,0A.52.52,0,0,0,295,151.1Z" transform="translate(-178.65 -51.51)"/><path class="cls-2" d="M287.92,168.66a.77.77,0,1,1,0,1.53.78.78,0,0,1,0-1.53Zm0,1.28a.53.53,0,1,0-.64-.52A.52.52,0,0,0,287.92,169.94Z" transform="translate(-178.65 -51.51)"/><path class="cls-2" d="M280.8,168.66a.77.77,0,1,1,0,1.53.78.78,0,0,1,0-1.53Zm0,1.28a.54.54,0,0,0,0-1,.53.53,0,1,0,0,1Z" transform="translate(-178.65 -51.51)"/><path class="cls-2" d="M295,168.66a.78.78,0,1,1-.64.76A.77.77,0,0,1,295,168.66Zm0,1.28a.54.54,0,0,0,0-1,.53.53,0,1,0,0,1Z" transform="translate(-178.65 -51.51)"/><path class="cls-2" d="M287.92,187.5a.77.77,0,1,1,0,1.53.76.76,0,0,1-.64-.77A.75.75,0,0,1,287.92,187.5Zm0,1.28a.53.53,0,0,0,.39-.52.52.52,0,1,0-1,0A.53.53,0,0,0,287.92,188.78Z" transform="translate(-178.65 -51.51)"/><path class="cls-2" d="M280.8,187.5a.77.77,0,1,1,0,1.53.78.78,0,0,1-.64-.77A.77.77,0,0,1,280.8,187.5Zm0,1.28a.52.52,0,0,0,.39-.52.51.51,0,0,0-.39-.51.52.52,0,0,0-.64.51A.53.53,0,0,0,280.8,188.78Z" transform="translate(-178.65 -51.51)"/><path class="cls-2" d="M295,187.5a.78.78,0,1,1-.64.76A.76.76,0,0,1,295,187.5Zm0,1.28a.53.53,0,0,0,.39-.52.52.52,0,1,0-1,0A.53.53,0,0,0,295,188.78Z" transform="translate(-178.65 -51.51)"/><path class="cls-2" d="M287.92,206.33a.77.77,0,1,1,0,1.53.75.75,0,0,1-.64-.76A.76.76,0,0,1,287.92,206.33Zm0,1.29a.54.54,0,0,0,0-1,.53.53,0,1,0,0,1Z" transform="translate(-178.65 -51.51)"/><path class="cls-2" d="M280.8,206.33a.78.78,0,1,1-.64.77A.78.78,0,0,1,280.8,206.33Zm0,1.29a.54.54,0,0,0,0-1,.53.53,0,1,0,0,1Z" transform="translate(-178.65 -51.51)"/><path class="cls-2" d="M295,206.33a.77.77,0,1,1,0,1.53.76.76,0,0,1-.64-.76A.77.77,0,0,1,295,206.33Zm0,1.29a.53.53,0,1,0-.64-.52A.54.54,0,0,0,295,207.62Z" transform="translate(-178.65 -51.51)"/><path class="cls-2" d="M287.92,225.17a.77.77,0,1,1,0,1.53.78.78,0,0,1,0-1.53Zm0,1.28a.54.54,0,0,0,0-1,.52.52,0,0,0-.64.52A.52.52,0,0,0,287.92,226.45Z" transform="translate(-178.65 -51.51)"/><path class="cls-2" d="M280.8,225.17a.77.77,0,1,1,0,1.53.78.78,0,0,1,0-1.53Zm0,1.28a.54.54,0,0,0,0-1,.53.53,0,0,0-.64.52A.52.52,0,0,0,280.8,226.45Z" transform="translate(-178.65 -51.51)"/><path class="cls-2" d="M295,225.17a.78.78,0,1,1-.64.77A.77.77,0,0,1,295,225.17Zm0,1.28a.54.54,0,0,0,0-1,.53.53,0,0,0-.64.52A.52.52,0,0,0,295,226.45Z" transform="translate(-178.65 -51.51)"/><path class="cls-2" d="M287.92,244a.77.77,0,1,1,0,1.53.76.76,0,0,1-.64-.77A.75.75,0,0,1,287.92,244Zm0,1.28a.53.53,0,0,0,.39-.52.52.52,0,1,0-1,0A.52.52,0,0,0,287.92,245.29Z" transform="translate(-178.65 -51.51)"/><path class="cls-2" d="M280.8,244a.77.77,0,1,1,0,1.53.78.78,0,0,1-.64-.77A.77.77,0,0,1,280.8,244Zm0,1.28a.52.52,0,0,0,.39-.52.51.51,0,0,0-.39-.51.52.52,0,0,0-.64.51A.53.53,0,0,0,280.8,245.29Z" transform="translate(-178.65 -51.51)"/><path class="cls-2" d="M295,244a.78.78,0,1,1-.64.76A.76.76,0,0,1,295,244Zm0,1.28a.53.53,0,0,0,.39-.52.52.52,0,1,0-1,0A.53.53,0,0,0,295,245.29Z" transform="translate(-178.65 -51.51)"/><path class="cls-2" d="M292.12,107.89a.38.38,0,1,0,.38-.39A.38.38,0,0,0,292.12,107.89Z" transform="translate(-178.65 -51.51)"/><path class="cls-2" d="M290.59,110a.38.38,0,0,0,.38.38.39.39,0,1,0,0-.77A.38.38,0,0,0,290.59,110Z" transform="translate(-178.65 -51.51)"/><path class="cls-2" d="M287.53,110a.39.39,0,0,0,.39.38.39.39,0,0,0,0-.77A.39.39,0,0,0,287.53,110Z" transform="translate(-178.65 -51.51)"/><path class="cls-2" d="M284.48,110a.38.38,0,1,0,.38-.39A.38.38,0,0,0,284.48,110Z" transform="translate(-178.65 -51.51)"/><path class="cls-2" d="M289.06,107.89a.39.39,0,0,0,.77,0,.39.39,0,1,0-.77,0Z" transform="translate(-178.65 -51.51)"/><path class="cls-2" d="M286,107.89a.38.38,0,1,0,.38-.39A.38.38,0,0,0,286,107.89Z" transform="translate(-178.65 -51.51)"/><path class="cls-2" d="M283,107.89a.39.39,0,0,0,.77,0,.39.39,0,1,0-.77,0Z" transform="translate(-178.65 -51.51)"/><path class="cls-2" d="M290.59,121.75a.39.39,0,0,0,.38.39.4.4,0,0,0,.39-.39.39.39,0,0,0-.39-.38A.38.38,0,0,0,290.59,121.75Z" transform="translate(-178.65 -51.51)"/><path class="cls-2" d="M287.53,121.75a.4.4,0,0,0,.39.39.39.39,0,0,0,.38-.39.38.38,0,0,0-.38-.38A.39.39,0,0,0,287.53,121.75Z" transform="translate(-178.65 -51.51)"/><path class="cls-2" d="M284.48,121.75a.38.38,0,1,0,.76,0,.38.38,0,0,0-.76,0Z" transform="translate(-178.65 -51.51)"/><rect class="cls-3" x="298.74" y="120.32" width="3.81" height="8.57" transform="translate(422.63 197.7) rotate(180)"/><rect class="cls-2" x="22.34" y="198.49" width="22.9" height="25.92"/><rect class="cls-3" x="23.82" y="224.42" width="19.94" height="3.1"/><rect class="cls-2" x="25.41" y="227.52" width="16.74" height="2.42"/><rect class="cls-2" x="19.93" y="237.58" width="27.72" height="2.71"/><path class="cls-3" d="M224.89,289.09H200a13.95,13.95,0,0,1,24.89,0Z" transform="translate(-178.65 -51.51)"/><path class="cls-4" d="M234.07,265.31V152.9s-4.11,7-5,10.43c-1.44,5.81-3.56,26.35-6.48,33.11-.88,2-5.2,14.82-10.74,20.13-7.32,7-16.3,14.37-20.41,18.56-5.6,5.69-12.82,11-12.82,28Z" transform="translate(-178.65 -51.51)"/><path class="cls-5" d="M234.07,265.31V152.9s-4.11,7-5,10.43c-1.44,5.81-3.56,26.35-6.48,33.11-.88,2-5.2,14.82-10.74,20.13-7.32,7-16.3,14.37-20.41,18.56-5.6,5.69-12.82,11-12.82,28Z" transform="translate(-178.65 -51.51)"/><path class="cls-5" d="M234.07,152.9V265.31l-17-.67,14.52-107.25C232.86,155,234.07,152.9,234.07,152.9Z" transform="translate(-178.65 -51.51)"/><rect class="cls-2" x="276.11" y="250" width="22.9" height="25.92" transform="translate(396.46 474.42) rotate(180)"/><rect class="cls-3" x="277.59" y="275.92" width="19.94" height="3.1" transform="translate(396.46 503.44) rotate(180)"/><rect class="cls-2" x="279.19" y="279.02" width="16.74" height="2.42" transform="translate(396.46 508.96) rotate(180)"/><rect class="cls-2" x="273.7" y="289.09" width="27.72" height="2.71" transform="translate(396.46 529.38) rotate(180)"/><path class="cls-3" d="M275.11,289.09H300a13.95,13.95,0,0,0-24.89,0Z" transform="translate(-178.65 -51.51)"/><path class="cls-4" d="M265.93,265.31V152.9s4.11,7,5,10.43c1.44,5.81,3.56,26.35,6.48,33.11.88,2,5.2,14.82,10.74,20.13,7.32,7,16.3,14.37,20.41,18.56,5.6,5.69,12.82,11,12.82,28Z" transform="translate(-178.65 -51.51)"/><path class="cls-5" d="M265.93,265.31V152.9s4.11,7,5,10.43c1.44,5.81,3.56,26.35,6.48,33.11.88,2,5.2,14.82,10.74,20.13,7.32,7,16.3,14.37,20.41,18.56,5.6,5.69,12.82,11,12.82,28Z" transform="translate(-178.65 -51.51)"/><path class="cls-5" d="M265.93,152.9V265.31l17-.67L268.38,157.39C267.14,155,265.93,152.9,265.93,152.9Z" transform="translate(-178.65 -51.51)"/><path class="cls-6" d="M222.85,299.94c0,19.39-10.17,39.14-10.17,39.14s-10.17-19.75-10.17-39.14a27.32,27.32,0,0,1,1.34-8.14h17.66A27.32,27.32,0,0,1,222.85,299.94Z" transform="translate(-178.65 -51.51)"/><path class="cls-6" d="M219.37,295.22c0,15.58-6.69,31.46-6.69,31.46S206,310.8,206,295.22a24.37,24.37,0,0,1,.25-3.42h12.88A24.37,24.37,0,0,1,219.37,295.22Z" transform="translate(-178.65 -51.51)"/><path class="cls-6" d="M297.73,299.94c0,19.39-10.17,39.14-10.17,39.14s-10.18-19.75-10.18-39.14a27.33,27.33,0,0,1,1.35-8.14h17.66A27.32,27.32,0,0,1,297.73,299.94Z" transform="translate(-178.65 -51.51)"/><path class="cls-6" d="M294.25,295.22c0,15.58-6.69,31.46-6.69,31.46s-6.69-15.88-6.69-31.46a24.36,24.36,0,0,1,.24-3.42H294A24.37,24.37,0,0,1,294.25,295.22Z" transform="translate(-178.65 -51.51)"/><path class="cls-4" d="M269.62,147.36v87.77H230.38V147.36c0-8,1.32-15.18,6.5-27.13s7.64-17,13.12-17,8,5.06,13.12,17S269.62,139.41,269.62,147.36Z" transform="translate(-178.65 -51.51)"/><g class="cls-7"><path d="M230.38,149q4.91-.14,9.81-.19l9.81-.06,9.81.06q4.9.06,9.81.19c-3.27.1-6.54.16-9.81.2l-9.81,0-9.81,0C236.92,149.14,233.65,149.08,230.38,149Z" transform="translate(-178.65 -51.51)"/><path d="M230.38,178.14q4.91-.13,9.81-.19l9.81-.06,9.81.06q4.9.06,9.81.19c-3.27.1-6.54.16-9.81.2l-9.81,0-9.81,0C236.92,178.3,233.65,178.24,230.38,178.14Z" transform="translate(-178.65 -51.51)"/><path d="M230.38,207.3q4.91-.13,9.81-.19l9.81-.06,9.81.06q4.9.06,9.81.19c-3.27.1-6.54.16-9.81.2l-9.81.05-9.81-.05C236.92,207.46,233.65,207.4,230.38,207.3Z" transform="translate(-178.65 -51.51)"/><path d="M232.86,151.24a.7.7,0,0,1-.64.7.71.71,0,1,1,.64-.7Zm0,0a.58.58,0,1,0-.64.58A.59.59,0,0,0,232.86,151.24Z" transform="translate(-178.65 -51.51)"/><path d="M240,151.24a.7.7,0,0,1-.64.7.71.71,0,1,1,0-1.41A.71.71,0,0,1,240,151.24Zm0,0a.58.58,0,1,0-.64.58A.59.59,0,0,0,240,151.24Z" transform="translate(-178.65 -51.51)"/><path d="M261.31,151.24a.7.7,0,0,1-.64.7.71.71,0,1,1,.64-.7Zm0,0a.58.58,0,1,0-.64.58A.59.59,0,0,0,261.31,151.24Z" transform="translate(-178.65 -51.51)"/><path d="M268.42,151.24a.69.69,0,0,1-.64.7.71.71,0,1,1,.64-.7Zm0,0a.59.59,0,0,0-.64-.58.57.57,0,0,0-.51.58.58.58,0,0,0,.51.58A.59.59,0,0,0,268.42,151.24Z" transform="translate(-178.65 -51.51)"/><path d="M232.86,180.82a.7.7,0,0,1-.64.7.71.71,0,1,1,.64-.7Zm0,0a.58.58,0,1,0-.64.58A.59.59,0,0,0,232.86,180.82Z" transform="translate(-178.65 -51.51)"/><path d="M240,180.82a.7.7,0,0,1-.64.7.71.71,0,1,1,0-1.41A.71.71,0,0,1,240,180.82Zm0,0a.58.58,0,1,0-.64.58A.59.59,0,0,0,240,180.82Z" transform="translate(-178.65 -51.51)"/><path d="M261.31,180.82a.7.7,0,0,1-.64.7.71.71,0,1,1,.64-.7Zm0,0a.58.58,0,1,0-.64.58A.59.59,0,0,0,261.31,180.82Z" transform="translate(-178.65 -51.51)"/><path d="M268.42,180.82a.69.69,0,0,1-.64.7.71.71,0,1,1,.64-.7Zm0,0a.59.59,0,0,0-.64-.58.57.57,0,0,0-.51.58.58.58,0,0,0,.51.58A.59.59,0,0,0,268.42,180.82Z" transform="translate(-178.65 -51.51)"/><path d="M232.86,210.4a.7.7,0,0,1-.64.7.71.71,0,1,1,.64-.7Zm0,0a.58.58,0,1,0-.64.58A.59.59,0,0,0,232.86,210.4Z" transform="translate(-178.65 -51.51)"/><path d="M240,210.4a.7.7,0,0,1-.64.7.71.71,0,1,1,0-1.41A.71.71,0,0,1,240,210.4Zm0,0a.58.58,0,1,0-.64.58A.59.59,0,0,0,240,210.4Z" transform="translate(-178.65 -51.51)"/><path d="M261.31,210.4a.7.7,0,0,1-.64.7.71.71,0,1,1,.64-.7Zm0,0a.58.58,0,1,0-.64.58A.59.59,0,0,0,261.31,210.4Z" transform="translate(-178.65 -51.51)"/><path d="M268.42,210.4a.69.69,0,0,1-.64.7.71.71,0,1,1,.64-.7Zm0,0a.59.59,0,0,0-.64-.58.57.57,0,0,0-.51.58.58.58,0,0,0,.51.58A.59.59,0,0,0,268.42,210.4Z" transform="translate(-178.65 -51.51)"/><path d="M250,149c.11,14.4.08,28.79.12,43.19s0,28.78-.12,43.18c-.11-14.4-.08-28.79-.12-43.18S249.89,163.38,250,149Z" transform="translate(-178.65 -51.51)"/></g><rect class="cls-8" x="67.47" y="92.19" width="7.75" height="3.01"/><path class="cls-2" d="M243.39,132.37l1.52,3.65a19.55,19.55,0,0,0-3.49,2.06l-1.73-3.31A16.87,16.87,0,0,1,243.39,132.37Z" transform="translate(-178.65 -51.51)"/><path class="cls-2" d="M256.61,132.37,255.09,136a19.55,19.55,0,0,1,3.49,2.06l1.73-3.31A16.87,16.87,0,0,0,256.61,132.37Z" transform="translate(-178.65 -51.51)"/><path class="cls-2" d="M255,131.67l-1.55,3.71a10.12,10.12,0,0,0-6.92,0L245,131.67a13.69,13.69,0,0,1,10,0Z" transform="translate(-178.65 -51.51)"/><path class="cls-4" d="M262.67,119.18H237.33c4.86-11.21,7.36-16,12.67-16S257.81,108,262.67,119.18Z" transform="translate(-178.65 -51.51)"/><path class="cls-9" d="M262.67,119.18H237.33c4.86-11.21,7.36-16,12.67-16S257.81,108,262.67,119.18Z" transform="translate(-178.65 -51.51)"/><rect class="cls-4" x="68.3" y="64.21" width="6.1" height="1.99"/><rect class="cls-10" x="53.31" y="183.62" width="36.06" height="34.6"/><polygon class="cls-11" points="89.38 186.41 53.31 188.13 53.31 183.62 89.38 183.62 89.38 186.41"/><rect class="cls-2" x="55.64" y="218.23" width="7.63" height="4.91"/><path class="cls-10" d="M242.76,279.29h-9.3a4.65,4.65,0,1,1,9.3,0Z" transform="translate(-178.65 -51.51)"/><rect class="cls-2" x="79.38" y="218.23" width="7.63" height="4.91"/><path class="cls-10" d="M266.49,279.29H257.2a4.65,4.65,0,1,1,9.29,0Z" transform="translate(-178.65 -51.51)"/><path class="cls-2" d="M241.28,235.35c-4.82-.33-8.4,5.24-10.8,17.88-2.17,11.43-1.71,16.5-1.71,16.5h18.57V252.41C247.34,245.39,245.61,235.64,241.28,235.35Z" transform="translate(-178.65 -51.51)"/><path class="cls-2" d="M258.72,235.35c4.82-.33,8.4,5.24,10.8,17.88,2.17,11.43,1.71,16.5,1.71,16.5H252.66V252.41C252.66,245.39,254.39,235.64,258.72,235.35Z" transform="translate(-178.65 -51.51)"/><path class="cls-11" d="M253.78,252.43s-1.14,12.56-1.46,16.68c-.43,5.5-1,8.75-2.32,8.75s-1.89-3.25-2.32-8.75c-.33-4.12-1.46-16.68-1.46-16.68l3.78-6.38Z" transform="translate(-178.65 -51.51)"/></svg>