<svg id="Layer_1" data-name="Layer 1" xmlns="http://www.w3.org/2000/svg" viewBox="0 0 1500.84 2342.65"><defs><style>.cls-1{fill:#a3a2a3;fill-rule:evenodd;}.cls-2{fill:#cbcac8;}.cls-3{fill:#ffd111;}.cls-4{fill:#a4842e;}.cls-5{fill:#f4e6aa;}</style></defs><polygon class="cls-1" points="1031.51 1803.98 482.41 1803.98 482.41 2170.04 490.41 2170.04 563.73 2243.36 680.62 2256.16 680.62 2271.42 750.43 2263.78 820.23 2271.42 820.23 2256.16 937.14 2243.36 1010.47 2170.04 1031.51 2170.04 1031.51 1803.98"/><path class="cls-2" d="M2865,3552.07a64.81,64.81,0,0,1-64.83,64.81H2199.83a64.8,64.8,0,0,1-64.8-64.81h0a64.8,64.8,0,0,1,64.8-64.79h600.34a64.81,64.81,0,0,1,64.83,64.79Z" transform="translate(-1749.58 -1619.76)"/><path class="cls-2" d="M2865,3732.7a64.84,64.84,0,0,1-64.83,64.84H2199.83a64.83,64.83,0,0,1-64.8-64.84h0a64.78,64.78,0,0,1,64.8-64.76h600.34A64.8,64.8,0,0,1,2865,3732.7Z" transform="translate(-1749.58 -1619.76)"/><path class="cls-2" d="M2707.89,3897.6a64.8,64.8,0,0,1-64.81,64.81H2357a64.82,64.82,0,0,1-64.82-64.81h0a64.8,64.8,0,0,1,64.82-64.81h286.13a64.79,64.79,0,0,1,64.81,64.81Z" transform="translate(-1749.58 -1619.76)"/><path class="cls-3" d="M2500,1619.76h0c-413.81,0-750.41,330.28-750.41,736.31,0,208.48,88.11,437.06,235.59,611.49l6.21,8.12c19.23,24.47,188,243.28,188,395.92a60.09,60.09,0,0,0,45.77,58.19v1.83H2737v-3.91l49.42-.88a59.76,59.76,0,0,0,36.78-55.14c0-135,135.66-331.54,187.93-395.9a46.71,46.71,0,0,0,5.2-7.95l4.91-7.87c143.69-174.49,229.14-399.69,229.14-603.89C3250.42,1950.06,2913.82,1619.77,2500,1619.76Z" transform="translate(-1749.58 -1619.76)"/><path class="cls-4" d="M2798.19,2699.12c.14-6.58-.24-47.73-26.72-75.29-15.62-16.25-36.79-24.48-62.95-24.48-34.36,0-61.78,11.09-81.48,33-37.55,41.69-32.85,108-32.1,116.26v10.15H2418.13V2748.6c.76-8.3,5.46-74.57-32.09-116.26-19.71-21.9-47.12-33-81.48-33-26.16,0-47.32,8.23-62.94,24.48-26.5,27.56-26.87,68.71-26.74,75.29-.36,5.88-1.08,36,20.2,59.39,16.35,18,40.9,27.11,73,27.11h83.21v645h26.88v-645h176.81v645h26.87v-645H2705c32.06,0,56.6-9.1,73-27.11C2799.26,2735.13,2798.57,2705,2798.19,2699.12Zm-406.85,47.41-.09,12.22H2308c-24.05,0-41.84-6.09-52.91-18.14-15.2-16.5-13.44-39.76-13.43-39.91l.09-.91,0-.88c0-.34-1-35.54,19.33-56.55,10.49-10.86,24.71-16.14,43.47-16.14,26.37,0,47,8.09,61.43,24C2397.23,2684.86,2391.39,2745.93,2391.34,2746.53Zm366.61-5.92c-11.07,12-28.86,18.14-52.91,18.14h-83.23l-.07-12.22c-.06-.6-5.92-61.67,25.35-96.3,14.38-15.92,35-24,61.43-24,18.75,0,33,5.28,43.46,16.14,20.31,21,19.34,56.21,19.34,56.55l0,.88.08.91C2771.39,2700.85,2773.13,2724.11,2758,2740.61Z" transform="translate(-1749.58 -1619.76)"/><rect class="cls-4" x="635.7" y="1145.34" width="45.4" height="666.52" rx="19.49"/><rect class="cls-4" x="835.88" y="1145.34" width="45.4" height="666.52" rx="19.49"/><rect class="cls-4" x="486.83" y="979.59" width="546.94" height="170.8" rx="76.46"/><path class="cls-5" d="M1997,2684.55a38.37,38.37,0,0,1-30.5-17.37c-1.72-2.59-42.2-65.15-70.85-163.81-38-130.76-37.22-264.34,2.25-386.36,22.52-69.65,60.9-132.48,114-186.74,41.92-42.79,93-80.28,151.84-111.36,99.36-52.53,186.61-68.85,190.29-69.51a38.39,38.39,0,0,1,13.8,75.52c-1.5.31-81.39,15.59-170.17,62.93-116.18,61.93-192.46,147-226.7,252.8-84.09,260,58.35,482.3,59.81,484.51a38.4,38.4,0,0,1-33.78,59.39Z" transform="translate(-1749.58 -1619.76)"/><rect class="cls-4" x="2489.87" y="2756.28" width="45.4" height="685.08" rx="19.49" transform="translate(-2540.79 -757.16) rotate(-16.87)"/></svg>