<svg width="315" height="624" viewBox="0 0 315 624" fill="none" xmlns="http://www.w3.org/2000/svg">
<path d="M317 495.333C421.014 495.333 505.333 411.014 505.333 307C505.333 202.986 421.014 118.667 317 118.667C212.986 118.667 128.667 202.986 128.667 307C128.667 411.014 212.986 495.333 317 495.333Z" fill="#909FD6"/>
<path d="M180.144 390.67C162.797 391.85 150.399 385.246 141.347 374.521C145.116 384.33 149.923 393.559 155.224 402.487C168.802 407.577 183.244 409.708 199.957 397.697C191.803 393.699 184.459 390.389 180.144 390.67ZM406.57 141.596C407.363 147.373 403.277 150.402 393.362 147.989C376.543 143.903 361.785 161.655 353.314 176.502C336.636 205.683 267.83 238.563 267.777 213.256C267.759 201.298 206.983 228.102 199.217 216.091C191.873 204.75 169.93 209.117 165.386 195.522C144.821 223.422 132.386 256.473 129.459 291.009C136.099 303.654 144.675 313.587 153.269 317.884C164.893 323.695 218.888 344.793 226.778 331.321C239.934 308.849 318.867 324.752 316.982 312.935C313.372 290.305 359.725 308.884 376.385 279.72C384.873 264.874 403.382 253.48 420.219 257.566C439.873 262.338 464.123 228.631 462.292 187.192C446.82 168.554 427.901 153.073 406.57 141.596ZM462.591 426.456C456.638 429.38 450.774 431.616 445.42 432.197C405.83 436.477 397.271 467.508 370.714 462.189C357.03 459.442 338.362 483.569 317 485.031C302.904 486.068 288.877 487.879 274.98 490.455C288.76 493.65 302.855 495.286 317 495.333C375.663 495.333 428.038 468.511 462.591 426.456Z" fill="#5651A6"/>
<path d="M409.018 142.759C425.718 152.16 440.886 164.056 453.997 178.034C497.866 175.269 524.617 185.589 522.381 209.329C521.219 221.745 512.078 236.485 497.179 252.212C460.055 291.326 386.071 336.675 302.224 368.48C243.949 390.582 192.014 401.941 154.89 402.54C117.114 403.157 94.6949 392.625 96.7378 370.787C98.0763 356.434 109.981 338.982 129.354 320.472C129.019 315.982 128.667 311.544 128.667 307C128.667 292.066 130.586 277.607 133.88 263.659C58.1167 316.193 8.80554 374.045 8.80554 419.165C8.80554 480.575 99.7141 499.437 224.982 471.241C256.204 464.115 286.939 455.003 317 443.962C385.683 418.971 448.89 385.845 500.138 350.323C575.883 297.789 625.194 239.937 625.194 194.817C625.194 133.425 534.286 114.546 409.018 142.759Z" fill="#422A90"/>
<path d="M111.936 307.898C99.0671 320.332 87.9307 334.442 78.8273 349.848C70.1979 364.852 62.854 381.742 63.9636 396.887C64.5799 411.962 75.9743 420.944 91.4017 425.1C106.794 429.098 123.894 430.154 141.312 429.133C176.147 427.511 210.672 421.808 244.178 412.138C278.062 403.245 310.942 390.565 343.064 376.282C407.539 347.407 467.611 309.568 521.5 263.888C527.981 258.023 535.078 252.458 541.295 246.523C547.16 240.588 552.689 233.967 557.321 227.204C566.514 213.679 571.868 197.846 563.221 185.783C554.591 173.525 536.892 166.851 520.021 163.399C502.744 160.106 484.623 159.348 466.659 161.444C484.129 156.777 502.533 154.488 521.042 155.879C539.182 157.499 559.294 161.162 574.017 177.382C581.237 185.43 584.566 197.547 583.245 208.131C582.241 218.892 578.085 228.384 573.33 236.925C568.434 245.467 562.939 253.216 556.687 260.665C550.488 267.78 544.201 274.349 537.808 281.147C486.172 333.875 424.393 376.493 357.1 407.225C289.896 437.516 216.669 458.491 141.171 455.726C122.573 455.021 103.183 453.384 84.1811 446.075C74.7768 442.394 65.1259 436.97 57.7644 428.182C50.3726 419.515 46.6514 408.307 47.3915 396.94C49.1174 375.578 59.7897 359.041 71.1489 344.529C82.6951 330.213 96.4664 317.845 111.936 307.898Z" fill="#5651A6"/>
<path d="M284.083 40.3807H284.045C276.379 40.3926 268.551 43.1446 268.551 49.6937V49.8035H299.301V49.6937C299.301 43.5217 291.781 40.3807 284.083 40.3807Z" fill="url(#paint0_linear_2_42)"/>
<path d="M291.422 49.8036V47.2208C291.422 46.5706 290.891 46.0363 290.237 46.0363H278.232C277.582 46.0363 277.047 46.5677 277.047 47.2208V49.8036H291.422Z" fill="#A6A6A6"/>
<path d="M299.449 49.8036V49.6997C299.449 48.1797 298.781 47.2238 298.44 46.3599L296.047 47.1941L297.024 49.8066H299.449V49.8036Z" fill="#757575"/>
<path d="M271.05 49.8036C271.107 49.4978 271.139 49.1861 271.139 48.8654C271.139 47.672 270.658 46.5706 269.824 45.6681C269.014 46.7368 268.577 47.9451 268.577 49.2959V49.8036H271.05Z" fill="#757575"/>
<path d="M293.895 43.4386C290.499 44.8963 286.788 45.588 283.095 45.4603C281.276 45.3973 279.469 45.1375 277.706 44.6855C276.789 44.4509 275.883 44.163 274.999 43.8275C274.206 43.5247 273.405 43.2248 272.82 42.5806C272.3 42.0077 271.974 41.2091 272.149 40.4313C272.324 39.6594 272.915 39.0003 273.639 38.7005C274.467 38.3561 275.352 38.4363 276.162 38.7717C276.994 39.1191 277.843 39.4159 278.71 39.6505C282.242 40.6094 286.022 40.5767 289.54 39.5614C290.041 39.4159 290.537 39.2527 291.027 39.0686C291.511 38.8875 291.98 38.6381 292.488 38.5342C293.355 38.3561 294.34 38.5431 295.014 39.1428C295.697 39.7514 296.006 40.7103 295.709 41.5861C295.418 42.4352 294.702 43.0913 293.895 43.4386Z" fill="url(#paint1_linear_2_42)"/>
<path d="M283.964 43.1832C292.026 43.1832 298.562 36.7116 298.562 28.7284C298.562 20.7452 292.026 14.2736 283.964 14.2736C275.903 14.2736 269.367 20.7452 269.367 28.7284C269.367 36.7116 275.903 43.1832 283.964 43.1832Z" fill="#4C4C4C"/>
<path d="M297.751 28.7463C297.748 31.6635 296.799 34.501 295.047 36.8332C294.872 37.0707 294.688 37.2993 294.498 37.5219C293.755 38.3898 292.909 39.1626 291.977 39.8227C290.54 40.8435 288.919 41.5773 287.203 41.984C287.022 42.0315 286.841 42.0701 286.657 42.1057C284.876 42.4567 283.044 42.4577 281.263 42.1087C281.067 42.0701 280.874 42.0285 280.684 41.981C278.913 41.5515 277.245 40.7745 275.777 39.6951C274.889 39.0479 274.084 38.2968 273.384 37.4626C273.22 37.2696 273.066 37.0766 272.915 36.8747V36.8718C272.811 36.7382 272.71 36.6016 272.615 36.4621C271.074 34.2563 270.172 31.5815 270.178 28.7047C270.183 25.1512 271.567 21.9122 273.826 19.4868C276.355 16.7763 279.974 15.0782 283.985 15.0841C288.314 15.0901 292.179 17.0791 294.702 20.1815C296.614 22.5268 297.757 25.5074 297.751 28.7463Z" fill="#212121"/>
<path d="M291.401 29.0402H276.45C274.838 29.0402 273.52 30.4444 273.52 32.1633C273.52 33.8822 274.838 35.2864 276.45 35.2864H291.401C293.013 35.2864 294.331 33.8822 294.331 32.1633C294.331 30.4444 293.013 29.0402 291.401 29.0402Z" fill="#EDC391"/>
<path d="M283.926 18.2725C279.164 18.2725 274.755 23.3639 274.755 30.6907C274.755 37.979 279.298 41.5801 283.926 41.5801C288.554 41.5801 293.096 37.9761 293.096 30.6907C293.096 23.3639 288.688 18.2725 283.926 18.2725Z" fill="#F9DDBD"/>
<path d="M279.428 32.7274C280.173 32.7274 280.776 32.1027 280.776 31.3321C280.776 30.5615 280.173 29.9368 279.428 29.9368C278.684 29.9368 278.08 30.5615 278.08 31.3321C278.08 32.1027 278.684 32.7274 279.428 32.7274Z" fill="#312D2D"/>
<path d="M288.423 32.7274C289.168 32.7274 289.771 32.1027 289.771 31.3321C289.771 30.5615 289.168 29.9368 288.423 29.9368C287.679 29.9368 287.076 30.5615 287.076 31.3321C287.076 32.1027 287.679 32.7274 288.423 32.7274Z" fill="#312D2D"/>
<path d="M286.23 36.0732C285.357 36.5927 282.501 36.5927 281.631 36.0732C281.129 35.7763 280.619 36.2305 280.826 36.6847C281.031 37.133 282.59 38.1691 283.938 38.1691C285.285 38.1691 286.823 37.133 287.028 36.6847C287.233 36.2305 286.728 35.7763 286.23 36.0732Z" fill="#444444"/>
<path d="M284.983 33.8614C284.953 33.8495 284.923 33.8436 284.894 33.8376H282.958C282.928 33.8406 282.899 33.8495 282.869 33.8614C282.694 33.9326 282.596 34.1137 282.679 34.3067C282.762 34.4997 283.148 35.043 283.923 35.043C284.701 35.043 285.084 34.4997 285.167 34.3067C285.253 34.1137 285.158 33.9326 284.983 33.8614Z" fill="#DBA689"/>
<path d="M283.938 16.3102H283.926C271.389 16.3755 273.957 30.6967 273.957 30.6967C273.957 30.6967 274.518 32.1722 274.776 32.8253C274.812 32.9203 274.948 32.9085 274.972 32.8105C275.239 31.6141 276.204 27.3688 276.688 26.0774C276.973 25.3174 277.763 24.875 278.561 25.0205C279.79 25.2432 281.747 25.5192 283.905 25.5192H283.953C286.111 25.5192 288.067 25.2432 289.296 25.0205C290.095 24.875 290.885 25.3174 291.173 26.0774C291.656 27.3628 292.612 31.5844 292.883 32.7986C292.903 32.8966 293.043 32.9085 293.078 32.8135L293.901 30.6997C293.907 30.6967 296.475 16.3785 283.938 16.3102Z" fill="#312D2D"/>
<path d="M293.907 30.6967C293.907 30.6967 296.475 16.3785 283.938 16.3102H283.929C283.733 16.3102 283.543 16.3161 283.356 16.325C282.982 16.3399 282.623 16.3696 282.275 16.4111H282.263L282.192 16.42C271.638 17.75 273.96 30.6967 273.96 30.6967L274.782 32.8135C274.818 32.9085 274.954 32.8966 274.975 32.7986C275.245 31.5874 276.207 27.3599 276.691 26.0744C276.976 25.3144 277.766 24.8721 278.564 25.0175C279.793 25.2402 281.75 25.5163 283.908 25.5163H283.956C286.114 25.5163 288.07 25.2402 289.299 25.0175C290.098 24.8721 290.888 25.3144 291.176 26.0744C291.662 27.3658 292.624 31.62 292.891 32.8105C292.912 32.9085 293.049 32.9174 293.084 32.8253C293.34 32.1781 293.907 30.6967 293.907 30.6967Z" fill="url(#paint2_radial_2_42)"/>
<path d="M298.565 28.7967C298.565 28.868 298.562 28.9392 298.562 29.0134C297.594 26.9491 296.201 25.1127 294.474 23.6252C293.031 22.3782 291.377 21.3989 289.59 20.7336C287.792 20.0614 285.887 19.7185 283.967 19.7213C281.934 19.7213 279.992 20.0983 278.202 20.787C276.421 21.4669 274.791 22.4614 273.378 23.6934C271.689 25.1708 270.326 26.9822 269.373 29.0134C269.373 28.9392 269.367 28.868 269.367 28.7967C269.242 20.8405 275.815 14.1964 283.967 14.1964C292.03 14.1964 298.565 20.7336 298.565 28.7967Z" fill="url(#paint3_radial_2_42)"/>
<path d="M277.356 29.1173C278.175 27.9565 280.037 27.8497 281.102 28.7106C281.272 28.8472 281.497 29.0401 281.563 29.2539C281.672 29.6012 281.337 29.8714 281.013 29.7912C280.806 29.7378 280.613 29.6279 280.405 29.5626C280.031 29.4439 279.758 29.4112 279.422 29.4112C278.923 29.4083 278.603 29.4706 278.131 29.6636C277.935 29.7437 277.777 29.8684 277.555 29.7764C277.3 29.6725 277.202 29.3459 277.356 29.1173Z" fill="#454140"/>
<path d="M289.982 29.7764C289.902 29.7407 289.825 29.6962 289.744 29.6635C289.258 29.4587 288.979 29.4112 288.453 29.4112C287.987 29.4142 287.708 29.4765 287.346 29.6012C287.123 29.6784 286.841 29.8714 286.595 29.7942C286.235 29.6843 286.244 29.2895 286.443 29.0401C286.678 28.7432 287.001 28.5176 287.346 28.3692C288.141 28.0248 289.112 28.0723 289.86 28.5206C290.107 28.666 290.371 28.8679 290.519 29.1173C290.73 29.4765 290.404 29.9485 289.982 29.7764Z" fill="#454140"/>
<defs>
<linearGradient id="paint0_linear_2_42" x1="283.926" y1="49.6999" x2="283.926" y2="40.4149" gradientUnits="userSpaceOnUse">
<stop stop-color="#B3B3B3"/>
<stop offset="0.033" stop-color="#B7B7B7"/>
<stop offset="0.374" stop-color="#D9D9D9"/>
<stop offset="0.559" stop-color="#E6E6E6"/>
</linearGradient>
<linearGradient id="paint1_linear_2_42" x1="283.958" y1="40.2724" x2="283.958" y2="45.6245" gradientUnits="userSpaceOnUse">
<stop offset="0.004" stop-color="#E6E6E6"/>
<stop offset="0.333" stop-color="#D9D9D9"/>
<stop offset="0.941" stop-color="#B7B7B7"/>
<stop offset="1" stop-color="#B3B3B3"/>
</linearGradient>
<radialGradient id="paint2_radial_2_42" cx="0" cy="0" r="1" gradientUnits="userSpaceOnUse" gradientTransform="translate(283.933 28.1937) scale(10.5103 11.8577)">
<stop offset="0.794" stop-color="#454140" stop-opacity="0"/>
<stop offset="1" stop-color="#454140"/>
</radialGradient>
<radialGradient id="paint3_radial_2_42" cx="0" cy="0" r="1" gradientUnits="userSpaceOnUse" gradientTransform="translate(284.192 15.2358) scale(7.71905)">
<stop offset="0.005" stop-color="#F2F2F2"/>
<stop offset="0.422" stop-color="#E5E5E5"/>
<stop offset="1" stop-color="#CCCCCC"/>
</radialGradient>
</defs>
</svg>
