<svg width="988" height="922" viewBox="0 0 988 922" fill="none" xmlns="http://www.w3.org/2000/svg">
<path d="M965.658 330.329C938.129 266.265 894.38 221.151 862.301 221.151C858.472 221.151 854.792 221.782 851.325 223.126L803.746 242.963C753.758 176.752 684.093 124.886 602.838 95.0862C603.139 93.7414 603.305 92.3674 603.305 90.9348C603.305 80.1423 594.094 71.4127 582.727 71.4127C574.435 71.4127 567.305 76.0789 564.047 82.7768C525.635 72.4423 485.083 66.9188 443.188 66.9188C414.167 66.9188 385.811 69.61 358.344 74.6756L334.855 27.0723C326.278 9.66802 304.266 0.564697 276.98 0.564697C257.217 0.564697 234.665 5.34445 212.489 15.2209C159.723 38.6946 128.939 82.0348 143.744 112.062L166.809 158.778C132.391 184.883 102.18 215.741 77.2451 250.321C73.4764 246.199 67.944 243.594 61.7478 243.594C50.3801 243.594 41.1697 252.353 41.1697 263.145C41.1697 272.192 47.6824 279.805 56.501 282.009C20.5164 342.809 0 412.968 0 487.68C0 519.339 3.69341 550.198 10.6885 579.853C4.32634 583.172 0 589.614 0 596.997C0 607.76 9.21036 616.519 20.5781 616.519C20.7884 616.519 20.9853 616.489 21.1956 616.489C38.1093 666.441 64.5671 712.354 98.5623 752.23L76.3111 777.22C53.7126 802.497 71.3962 852.018 115.823 887.829C143.005 909.727 173.895 921.435 198.95 921.435C214.839 921.435 228.391 916.742 237.165 906.922L266.744 873.746C320.803 896.045 380.473 908.441 443.188 908.441C508.071 908.441 569.67 895.188 625.209 871.399C628.119 878.813 635.64 884.11 644.475 884.11C655.84 884.11 665.051 875.378 665.051 864.588C665.051 860.608 663.785 856.915 661.643 853.824C729.151 817.413 785.592 764.685 825.031 701.279C828.107 702.998 831.665 703.998 835.463 703.998C846.859 703.998 856.056 695.239 856.056 684.448C856.056 676.633 851.232 669.935 844.268 666.786C867.484 620.012 881.897 568.545 885.455 514.242L962.943 482.869C995.267 470.334 996.473 402.062 965.658 330.329ZM198.95 882.364C186.814 882.364 164.743 875.981 142.462 858.033C128.397 846.696 117.436 833.271 111.618 820.218C107.321 810.629 107.427 804.675 107.834 802.671C108.739 802.326 110.82 801.811 114.528 801.811C126.664 801.811 148.736 808.167 171.002 826.143C185.083 837.479 196.044 850.904 201.862 863.928C206.159 873.546 206.053 879.5 205.646 881.505C204.724 881.82 202.643 882.364 198.95 882.364ZM288.89 59.7354C279.665 70.8411 265.373 81.062 248.655 88.5037C232.766 95.5735 216.062 99.4665 201.619 99.4665C189.317 99.4665 183.061 96.6617 181.207 95.4013C181.357 93.3695 182.895 87.5858 189.709 79.3711C198.935 68.2653 213.228 58.0445 229.945 50.6028C245.834 43.533 262.539 39.6399 276.994 39.6399C289.28 39.6399 295.536 42.4448 297.406 43.7052C297.242 45.7369 295.704 51.5188 288.89 59.7354ZM945.397 442.081C940.572 438.931 933.878 433.492 925.98 424.676C911.266 408.245 897.336 385.603 886.723 360.9C876.109 336.199 869.386 310.75 867.789 289.253C866.943 277.689 867.729 269.359 868.873 263.92C873.697 267.069 880.391 272.509 888.29 281.324C903.003 297.726 916.934 320.398 927.547 345.101C938.16 369.802 944.883 395.25 946.481 416.747C947.326 428.284 946.543 436.614 945.397 442.081Z" fill="#FC6E51"/>
</svg>
